<svg width="115" height="35" viewBox="0 0 115 35" fill="none" xmlns="http://www.w3.org/2000/svg">
    <rect x="0.75" y="0.75" width="113.5" height="33.5" rx="3.25" fill="white" stroke="#3377FF" stroke-width="1.5"/>
    <path d="M38.0117 22V12.0469H41.4229C42.5485 12.0469 43.4053 12.2725 43.9932 12.7236C44.5811 13.1748 44.875 13.847 44.875 14.7402C44.875 15.196 44.752 15.6061 44.5059 15.9707C44.2598 16.3353 43.8997 16.6178 43.4258 16.8184C43.9635 16.9642 44.3783 17.2399 44.6699 17.6455C44.9661 18.0465 45.1143 18.5296 45.1143 19.0947C45.1143 20.029 44.8135 20.7467 44.2119 21.248C43.6149 21.7493 42.7581 22 41.6416 22H38.0117ZM39.7412 17.5088V20.6191H41.6621C42.2044 20.6191 42.6283 20.4847 42.9336 20.2158C43.2389 19.9469 43.3916 19.5732 43.3916 19.0947C43.3916 18.0602 42.863 17.5316 41.8057 17.5088H39.7412ZM39.7412 16.2373H41.4365C41.9743 16.2373 42.3936 16.1165 42.6943 15.875C42.9997 15.6289 43.1523 15.2826 43.1523 14.8359C43.1523 14.3438 43.0111 13.9883 42.7285 13.7695C42.4505 13.5508 42.0153 13.4414 41.4229 13.4414H39.7412V16.2373ZM53.3019 19.0742H52.461V22H50.7999V14.6035H52.461V17.5566H53.1925L55.2364 14.6035H57.2872L54.6144 18.1445L57.5128 22H55.3526L53.3019 19.0742ZM57.9699 18.2334C57.9699 17.5088 58.1134 16.8571 58.4005 16.2783C58.6876 15.695 59.091 15.2484 59.6105 14.9385C60.13 14.624 60.727 14.4668 61.4015 14.4668C62.3996 14.4668 63.2085 14.7881 63.8283 15.4307C64.4526 16.0732 64.7899 16.9255 64.84 17.9873L64.8468 18.377C64.8468 19.1061 64.7055 19.7578 64.423 20.332C64.145 20.9062 63.744 21.3506 63.2199 21.665C62.7003 21.9795 62.0988 22.1367 61.4152 22.1367C60.3716 22.1367 59.5353 21.7904 58.9064 21.0977C58.282 20.4004 57.9699 19.473 57.9699 18.3154V18.2334ZM59.631 18.377C59.631 19.138 59.7882 19.735 60.1027 20.168C60.4171 20.5964 60.8546 20.8105 61.4152 20.8105C61.9757 20.8105 62.4109 20.5918 62.7208 20.1543C63.0353 19.7168 63.1925 19.0765 63.1925 18.2334C63.1925 17.486 63.0307 16.8936 62.7072 16.4561C62.3882 16.0186 61.9529 15.7998 61.4015 15.7998C60.8592 15.7998 60.4285 16.0163 60.1095 16.4492C59.7905 16.8776 59.631 17.5202 59.631 18.377ZM72.9807 18.377C72.9807 19.5208 72.7209 20.4346 72.2014 21.1182C71.6818 21.7972 70.9846 22.1367 70.1096 22.1367C69.2984 22.1367 68.6489 21.8701 68.1613 21.3369V24.8438H66.5002V14.6035H68.0314L68.0998 15.3555C68.5874 14.763 69.2505 14.4668 70.0891 14.4668C70.9914 14.4668 71.6978 14.804 72.2082 15.4785C72.7232 16.1484 72.9807 17.0804 72.9807 18.2744V18.377ZM71.3264 18.2334C71.3264 17.4951 71.1782 16.9095 70.882 16.4766C70.5904 16.0436 70.1711 15.8271 69.6242 15.8271C68.9452 15.8271 68.4575 16.1074 68.1613 16.668V19.9492C68.4621 20.5234 68.9543 20.8105 69.6379 20.8105C70.1665 20.8105 70.579 20.5986 70.8752 20.1748C71.176 19.7464 71.3264 19.0993 71.3264 18.2334ZM80.2463 16.627C80.2463 16.9551 80.1461 17.2581 79.9455 17.5361C79.7496 17.8096 79.4716 18.0283 79.1116 18.1924C79.9592 18.4886 80.383 19.0605 80.383 19.9082C80.383 20.5872 80.1073 21.1296 79.5559 21.5352C79.0045 21.9362 78.2662 22.1367 77.3411 22.1367C76.7759 22.1367 76.261 22.0433 75.7961 21.8564C75.3313 21.665 74.969 21.3962 74.7092 21.0498C74.4495 20.6989 74.3196 20.2842 74.3196 19.8057H75.9739C75.9739 20.1064 76.1083 20.3594 76.3772 20.5645C76.6461 20.765 76.9856 20.8652 77.3957 20.8652C77.8013 20.8652 78.1226 20.7718 78.3596 20.585C78.6011 20.3936 78.7219 20.1452 78.7219 19.8398C78.7219 19.4798 78.6171 19.2201 78.4075 19.0605C78.1978 18.901 77.8743 18.8213 77.4368 18.8213H76.2473V17.625H77.4778C78.2206 17.6159 78.592 17.3105 78.592 16.709C78.592 16.4082 78.4849 16.1735 78.2707 16.0049C78.0565 15.8363 77.7626 15.752 77.3889 15.752C77.0243 15.752 76.7167 15.8431 76.4661 16.0254C76.2154 16.2031 76.0901 16.4287 76.0901 16.7021H74.4358C74.4358 16.0505 74.7092 15.5173 75.2561 15.1025C75.803 14.6833 76.498 14.4736 77.3411 14.4736C78.2571 14.4736 78.9703 14.6605 79.4807 15.0342C79.9911 15.4079 80.2463 15.9388 80.2463 16.627ZM86.6643 14.6035H88.3186V22H86.6643V17.0645L83.7659 22H82.1116V14.6035H83.7659V19.5391L86.6643 14.6035ZM96.6029 22H94.9417V19.0127H92.0638V22H90.4027V14.6035H92.0638V17.6865H94.9417V14.6035H96.6029V22ZM101.216 19.6211L102.72 14.6035H104.491L101.551 23.1211C101.1 24.3652 100.334 24.9873 99.2543 24.9873C99.0127 24.9873 98.7461 24.9463 98.4545 24.8643V23.5791L98.7689 23.5996C99.1882 23.5996 99.5027 23.5221 99.7123 23.3672C99.9265 23.2168 100.095 22.9616 100.218 22.6016L100.457 21.9658L97.8597 14.6035H99.6508L101.216 19.6211Z" fill="#3377FF"/>
    <path d="M15.1 22.6C14.165 22.6 13.4085 23.365 13.4085 24.3C13.4085 25.235 14.165 26 15.1 26C16.035 26 16.8 25.235 16.8 24.3C16.8 23.365 16.035 22.6 15.1 22.6ZM10 9V10.7H11.7L14.76 17.1515L13.6125 19.234C13.4765 19.472 13.4 19.7525 13.4 20.05C13.4 20.985 14.165 21.75 15.1 21.75H25.3V20.05H15.457C15.338 20.05 15.2445 19.9565 15.2445 19.8375L15.27 19.7355L16.035 18.35H22.3675C23.005 18.35 23.566 18.0015 23.855 17.4745L26.898 11.958C26.966 11.839 27 11.6945 27 11.55C27 11.0825 26.6175 10.7 26.15 10.7H13.5785L12.7795 9H10ZM23.6 22.6C22.665 22.6 21.9085 23.365 21.9085 24.3C21.9085 25.235 22.665 26 23.6 26C24.535 26 25.3 25.235 25.3 24.3C25.3 23.365 24.535 22.6 23.6 22.6Z" fill="#3377FF"/>
</svg>
