<svg width="30" height="30" viewBox="0 0 30 30" fill="none" xmlns="http://www.w3.org/2000/svg">
    <path d="M30 15C30 23.2843 23.2843 30 15 30C6.71573 30 0 23.2843 0 15C0 6.71573 6.71573 0 15 0C23.2843 0 30 6.71573 30 15Z" fill="#7294C7"/>
    <path d="M22.3541 18.8367C22.3541 18.7744 22.2919 18.7744 22.2919 18.7122C22.0428 18.214 21.4824 17.5913 20.7352 16.9064C20.3616 16.5951 20.1748 16.346 20.0503 16.2215C19.8635 15.9724 19.8635 15.7856 19.9257 15.5365C19.988 15.3497 20.2371 15.0384 20.6729 14.478C20.922 14.1666 21.0465 13.9798 21.2333 13.793C22.1673 12.5477 22.6032 11.7382 22.4787 11.3646L22.4164 11.3024C22.3542 11.2401 22.2919 11.1778 22.1673 11.1778C22.0428 11.1156 21.856 11.1156 21.6692 11.1778H19.3031C19.2408 11.1778 19.2408 11.1778 19.1162 11.1778C19.054 11.1778 18.9917 11.1778 18.9917 11.1778H18.9295H18.8672L18.8049 11.2401C18.7426 11.3024 18.7426 11.3024 18.7426 11.3646C18.4936 12.0496 18.1822 12.61 17.8709 13.2326C17.6841 13.544 17.4973 13.8553 17.3105 14.1044C17.1237 14.3535 16.9992 14.5402 16.8746 14.6648C16.7501 14.7893 16.6256 14.8516 16.5633 14.9761C16.501 15.0384 16.3765 15.1007 16.3765 15.0384C16.3142 15.0384 16.252 15.0384 16.252 14.9761C16.1897 14.9139 16.1274 14.8516 16.0652 14.7893C16.0029 14.727 16.0029 14.6025 15.9406 14.478C15.9406 14.3534 15.9406 14.2289 15.9406 14.1666C15.9406 14.1044 15.9406 13.9176 15.9406 13.793C15.9406 13.6062 15.9406 13.4817 15.9406 13.4194C15.9406 13.2326 15.9406 12.9836 15.9406 12.7345C15.9406 12.4854 15.9406 12.2986 15.9406 12.1741C15.9406 12.0496 15.9406 11.8628 15.9406 11.7382C15.9406 11.5514 15.9406 11.4269 15.9406 11.3646C15.9406 11.3024 15.8784 11.1778 15.8784 11.1156C15.8161 11.0533 15.7538 10.991 15.6915 10.9288C15.6293 10.8665 15.5048 10.8665 15.4425 10.8042C15.1311 10.742 14.7576 10.6797 14.3217 10.6797C13.3254 10.6797 12.6405 10.742 12.3914 10.8665C12.2669 10.9288 12.1423 10.991 12.0801 11.1156C11.9555 11.2401 11.9555 11.3024 12.0178 11.3024C12.3291 11.3646 12.5782 11.4892 12.7027 11.676L12.765 11.8005C12.8273 11.8628 12.8273 11.9873 12.8895 12.1741C12.9518 12.3609 12.9518 12.5477 12.9518 12.7968C12.9518 13.1704 12.9518 13.544 12.9518 13.793C12.9518 14.1044 12.8895 14.2912 12.8895 14.478C12.8895 14.6648 12.8273 14.7893 12.765 14.8516C12.7027 14.9761 12.7027 15.0384 12.6405 15.0384C12.6405 15.0384 12.6405 15.1007 12.5782 15.1007C12.5159 15.1007 12.4537 15.1629 12.3291 15.1629C12.2669 15.1629 12.1423 15.1007 12.0801 15.0384C11.9555 14.9761 11.831 14.8516 11.7687 14.7271C11.6442 14.6025 11.5197 14.4157 11.3951 14.1666C11.2706 13.9176 11.0838 13.6685 10.9592 13.2949L10.8347 13.0458C10.7724 12.9213 10.6479 12.6722 10.5234 12.3609C10.3988 12.0496 10.2743 11.8005 10.1498 11.4892C10.0875 11.3646 10.0252 11.3024 9.96298 11.2401H9.90071C9.90071 11.2401 9.83843 11.1778 9.77617 11.1778C9.7139 11.1778 9.65164 11.1156 9.58937 11.1156H7.34775C7.09868 11.1156 6.97415 11.1778 6.91188 11.2401L6.84961 11.3024C6.84961 11.3024 6.84961 11.3646 6.84961 11.4269C6.84961 11.4892 6.84961 11.5514 6.91188 11.676C7.22322 12.4232 7.59682 13.1704 7.97042 13.9176C8.34402 14.6025 8.71763 15.2252 8.9667 15.6611C9.27804 16.0969 9.5271 16.5328 9.83844 16.9064C10.1498 17.28 10.3366 17.5291 10.3988 17.6536C10.5234 17.7781 10.5856 17.8404 10.6479 17.9027L10.8347 18.0895C10.9592 18.214 11.146 18.4008 11.3951 18.5876C11.6442 18.7744 11.9555 18.9612 12.2669 19.148C12.5782 19.3348 12.9518 19.4594 13.3254 19.5839C13.7613 19.7084 14.1349 19.7707 14.5085 19.7084H15.4425C15.6293 19.7084 15.7538 19.6462 15.8784 19.5216L15.9406 19.4594C15.9406 19.3971 16.0029 19.3971 16.0029 19.3348C16.0029 19.2726 16.0029 19.2103 16.0029 19.0858C16.0029 18.8367 16.0029 18.6499 16.0652 18.4631C16.1274 18.2763 16.1274 18.1518 16.1897 18.0272C16.252 17.9027 16.3142 17.8404 16.3765 17.7781C16.4388 17.7159 16.501 17.6536 16.501 17.6536H16.5633C16.6878 17.5913 16.8746 17.6536 16.9992 17.7781C17.186 17.9027 17.3728 18.0895 17.4973 18.2763C17.6218 18.4631 17.8086 18.6499 18.0577 18.899C18.3068 19.148 18.4936 19.3348 18.6181 19.3971L18.8049 19.5216C18.9294 19.5839 19.054 19.6462 19.2408 19.7084C19.4276 19.7707 19.5521 19.7707 19.6766 19.7707L21.7937 19.7084C21.9805 19.7084 22.1673 19.6462 22.2919 19.5839C22.4164 19.5216 22.4787 19.4594 22.4787 19.3348C22.4787 19.2726 22.4787 19.148 22.4787 19.0858C22.3541 18.9612 22.3541 18.899 22.3541 18.8367Z" fill="white"/>
</svg>
