<svg width="30" height="30" viewBox="0 0 30 30" fill="none" xmlns="http://www.w3.org/2000/svg">
    <path d="M30 15C30 23.2843 23.2843 30 15 30C6.71573 30 0 23.2843 0 15C0 6.71573 6.71573 0 15 0C23.2843 0 30 6.71573 30 15Z" fill="#4E6297"/>
    <path d="M21.752 10.364C21.752 9.24093 20.761 8.25 19.638 8.25H11.1159C9.99288 8.25 9.00195 9.24093 9.00195 10.364V18.886C9.00195 20.0091 9.99288 21 11.1159 21H15.41V16.1775H13.8245V14.0635H15.41V13.2047C15.41 11.7513 16.467 10.4961 17.7882 10.4961H19.5058V12.6101H17.7882C17.59 12.6101 17.3918 12.8083 17.3918 13.2047V14.0635H19.5058V16.1775H17.3918V21H19.638C20.761 21 21.752 20.0091 21.752 18.886V10.364Z" fill="white"/>
</svg>
