<svg width="30" height="30" viewBox="0 0 30 30" fill="none" xmlns="http://www.w3.org/2000/svg">
    <path opacity="0.75" d="M30 15C30 23.2843 23.2843 30 15 30C6.71573 30 0 23.2843 0 15C0 6.71573 6.71573 0 15 0C23.2843 0 30 6.71573 30 15Z" fill="#2F89CE"/>
    <path d="M6.77969 15.2806L10.1138 16.5665L11.4135 20.8918C11.47 21.184 11.8091 21.2425 12.0351 21.0671L13.9 19.489C14.0695 19.3136 14.3521 19.3136 14.5781 19.489L17.9122 22.0023C18.1382 22.1777 18.4773 22.0608 18.5338 21.7685L21.0202 9.49399C21.0768 9.20174 20.7942 8.90949 20.5117 9.02639L6.77969 14.5207C6.44063 14.6376 6.44063 15.1637 6.77969 15.2806ZM11.244 15.9235L17.7992 11.7735C17.9122 11.7151 18.0252 11.8905 17.9122 11.9489L12.5437 17.151C12.3742 17.3263 12.2047 17.5601 12.2047 17.8524L12.0351 19.2552C12.0351 19.4305 11.7526 19.489 11.6961 19.2552L11.0179 16.6834C10.8484 16.3911 10.9614 16.0404 11.244 15.9235Z" fill="white"/>
</svg>
