<svg width="139" height="43" viewBox="0 0 139 43" fill="none" xmlns="http://www.w3.org/2000/svg">
<g clip-path="url(#clip0)">
<g filter="url(#filter0_d)">
<path d="M2.67802 20.1182C1.87281 20.0712 1.25313 19.3809 1.35467 18.5827C1.91769 14.1579 3.84977 10.004 6.9 6.70971C10.2814 3.05768 14.8278 0.688098 19.7644 0.00479053C24.701 -0.678553 29.7224 0.366621 33.973 2.96222C38.2238 5.55782 41.4405 9.54324 43.0755 14.2394C44.7105 18.9356 44.6623 24.052 42.9397 28.7167C41.2167 33.3816 37.9255 37.3062 33.6269 39.8218C29.3281 42.3376 24.2879 43.2885 19.365 42.5132C14.9244 41.8135 10.827 39.7482 7.63576 36.6237C7.06011 36.0603 7.11743 35.1353 7.72014 34.6006L7.83578 34.4983C8.43848 33.9636 9.35786 34.0223 9.93987 34.5791C12.6533 37.1766 16.1072 38.8941 19.8448 39.4827C24.0649 40.1473 28.3854 39.3323 32.0704 37.1755C35.7552 35.0191 38.5765 31.655 40.0534 27.6562C41.5303 23.6574 41.5716 19.2715 40.1702 15.2458C38.7685 11.2202 36.0108 7.80379 32.3672 5.57876C28.7234 3.35377 24.4189 2.45781 20.1871 3.04358C15.9554 3.62936 12.0581 5.66056 9.15949 8.7912C6.59221 11.5639 4.94893 15.047 4.43334 18.7628C4.32275 19.5598 3.63771 20.1742 2.8325 20.1272L2.67802 20.1182Z" fill="#2F80ED"/>
</g>
<g filter="url(#filter1_d)">
<path d="M26.772 12.5469H30.8103C30.9976 12.5469 31.1597 12.6149 31.2959 12.7508C31.4321 12.8868 31.5003 13.0483 31.5003 13.2352V29.7043C31.5003 29.8911 31.4321 30.0525 31.2959 30.1887C31.1597 30.3245 30.9976 30.3926 30.8103 30.3926H26.1841C25.9967 30.3926 25.8348 30.3245 25.6985 30.1887C25.5622 30.0525 25.494 29.8911 25.494 29.7043V22.7189L23.8072 25.4722C23.5345 25.8972 23.2193 26.1096 22.8615 26.1096H21.0724C20.7146 26.1096 20.3994 25.8972 20.1267 25.4722L18.4399 22.7189V29.7043C18.4399 29.8911 18.3717 30.0525 18.2354 30.1887C18.0991 30.3245 17.9372 30.3926 17.7498 30.3926H13.1237C12.9363 30.3926 12.7744 30.3245 12.6381 30.1887C12.5018 30.0525 12.4336 29.8911 12.4336 29.7043V13.2352C12.4336 13.0483 12.5018 12.8868 12.6381 12.7508C12.7744 12.6149 12.9363 12.5469 13.1237 12.5469H17.1619C17.639 12.5469 18.0054 12.7763 18.261 13.2352L21.9669 19.3537L25.6729 13.2352C25.9285 12.7763 26.2949 12.5469 26.772 12.5469Z" fill="#2F80ED"/>
</g>
<g filter="url(#filter2_d)">
<path d="M52.8154 11.3056H61.8149C64.7141 11.3056 66.9791 11.937 68.6099 13.2C70.2407 14.463 71.0561 16.3269 71.0561 18.7916C71.0561 21.2565 70.2407 23.0796 68.6099 24.2611C66.9994 25.4425 64.7344 26.0333 61.8149 26.0333H59.852V31.8694C59.852 32.0934 59.7713 32.2867 59.6103 32.45C59.4494 32.6128 59.2579 32.6944 59.0366 32.6944H52.8154C52.5941 32.6944 52.4025 32.6128 52.2416 32.45C52.0807 32.2867 52 32.0934 52 31.8694V12.1306C52 11.9065 52.0807 11.713 52.2416 11.55C52.4025 11.387 52.5941 11.3056 52.8154 11.3056ZM59.701 16.9889V20.3805H61.8149C62.1773 20.3805 62.4996 20.2481 62.7813 19.9833C63.0631 19.6981 63.2041 19.3009 63.2041 18.7916C63.2041 18.2824 63.0933 17.8546 62.8719 17.5083C62.6506 17.162 62.2981 16.9889 61.8149 16.9889H59.701ZM79.6807 32.6944H74.2749C74.0536 32.6944 73.8621 32.6128 73.7011 32.45C73.5402 32.2867 73.4595 32.0934 73.4595 31.8694V11.825C73.4595 11.6009 73.5402 11.4074 73.7011 11.2444C73.8621 11.0815 74.0536 11 74.2749 11H79.6807C79.902 11 80.0936 11.0815 80.2545 11.2444C80.4154 11.4074 80.4961 11.6009 80.4961 11.825V31.8694C80.4961 32.0934 80.4154 32.2867 80.2545 32.45C80.0936 32.6128 79.902 32.6944 79.6807 32.6944ZM83.0631 28.1416C83.0631 25.3916 85.2677 23.6296 89.6768 22.8555L92.878 22.3361C92.878 21.725 92.828 21.3176 92.727 21.1138C92.6265 20.8898 92.3849 20.7777 92.0022 20.7777C91.6398 20.7777 91.2774 20.9407 90.915 21.2666C90.5526 21.5926 90.2105 21.7555 89.8882 21.7555H84.7543C84.3116 21.7555 84.0899 21.5416 84.0899 21.1138C84.0899 20.6657 84.2409 20.1972 84.5429 19.7083C84.8651 19.1991 85.3181 18.7 85.9019 18.2111C86.5059 17.7222 87.3415 17.3148 88.4084 16.9889C89.4956 16.663 90.7036 16.5 92.0324 16.5C94.7306 16.5 96.7539 17.0704 98.1026 18.2111C99.4516 19.3518 100.126 20.9815 100.126 23.1V31.8694C100.126 32.0934 100.046 32.2867 99.8844 32.45C99.7234 32.6128 99.5323 32.6944 99.3106 32.6944H94.0256C93.8043 32.6944 93.6132 32.6128 93.4518 32.45C93.2909 32.2867 93.2102 32.0934 93.2102 31.8694V31.0138C92.2641 32.3378 90.8848 33 89.0728 33C87.2608 33 85.8013 32.5417 84.6939 31.625C83.6067 30.6879 83.0631 29.5268 83.0631 28.1416ZM91.0056 28.4777C92.3146 28.4777 92.9686 27.6833 92.9686 26.0944L91.1868 26.4916C90.3011 26.6953 89.858 27.0722 89.858 27.6222C89.858 27.8666 89.959 28.0703 90.16 28.2333C90.3615 28.3963 90.6432 28.4777 91.0056 28.4777ZM109.927 23.6805V25.8194C109.927 26.512 110.018 27.011 110.199 27.3166C110.38 27.6222 110.662 27.7749 111.044 27.7749C111.427 27.7749 111.689 27.7138 111.83 27.5916C111.97 27.449 112.111 27.1944 112.252 26.8277C112.413 26.4407 112.705 26.2472 113.128 26.2472H119.017C119.239 26.2472 119.43 26.3287 119.591 26.4916C119.752 26.6546 119.833 26.8685 119.833 27.1333C119.833 27.3981 119.742 27.7546 119.561 28.2027C119.38 28.6509 119.067 29.1601 118.625 29.7305C118.182 30.3009 117.638 30.8305 116.994 31.3194C116.349 31.7878 115.504 32.185 114.457 32.5111C113.41 32.8367 112.252 33 110.984 33C108.467 33 106.424 32.3378 104.854 31.0138C103.303 29.6694 102.528 27.8157 102.528 25.4527V24.0472C102.528 21.6842 103.303 19.8407 104.854 18.5166C106.424 17.1722 108.467 16.5 110.984 16.5C112.474 16.5 113.823 16.7343 115.031 17.2028C116.239 17.6509 117.165 18.2111 117.809 18.8833C118.474 19.5352 118.977 20.1768 119.319 20.8083C119.661 21.4398 119.833 21.9287 119.833 22.275C119.833 22.6009 119.752 22.8453 119.591 23.0083C119.43 23.1713 119.239 23.2527 119.017 23.2527H113.128C112.746 23.2527 112.454 23.0491 112.252 22.6416C111.97 22.0305 111.598 21.725 111.135 21.725C110.33 21.725 109.927 22.3768 109.927 23.6805ZM138.185 26.5527H129.185V26.7055C129.185 27.9481 129.578 28.5694 130.363 28.5694C130.585 28.5694 130.856 28.4064 131.178 28.0805C131.501 27.7546 131.853 27.5916 132.235 27.5916H137.943C138.386 27.5916 138.607 27.8157 138.607 28.2638C138.607 29.262 137.863 30.3009 136.373 31.3805C134.903 32.46 132.9 33 130.363 33C127.846 33 125.783 32.3378 124.172 31.0138C122.582 29.6694 121.786 27.8259 121.786 25.4833V24.0166C121.786 21.7963 122.602 19.9935 124.232 18.6083C125.863 17.2028 127.997 16.5 130.635 16.5C133.292 16.5 135.346 17.2842 136.795 18.8527C138.265 20.4213 139 22.4074 139 24.8111V25.7277C139 25.9518 138.92 26.1453 138.758 26.3083C138.597 26.4713 138.406 26.5527 138.185 26.5527ZM131.601 22.6111C131.601 21.3888 131.199 20.7777 130.393 20.7777C129.588 20.7777 129.185 21.3888 129.185 22.6111V22.7333H131.601V22.6111Z" fill="#2F80ED"/>
</g>
<path d="M2.67802 20.1182C1.87281 20.0712 1.25313 19.3809 1.35467 18.5827C1.91769 14.1579 3.84977 10.004 6.9 6.70971C10.2814 3.05768 14.8278 0.688098 19.7644 0.00479054C24.701 -0.678553 29.7224 0.366621 33.973 2.96222C38.2238 5.55782 41.4405 9.54324 43.0755 14.2394C44.7105 18.9356 44.6623 24.052 42.9397 28.7167C41.2167 33.3816 37.9255 37.3062 33.6269 39.8218C29.3281 42.3376 24.2879 43.2885 19.365 42.5132C14.9244 41.8135 10.827 39.7482 7.63576 36.6237C7.06011 36.0603 7.11743 35.1353 7.72014 34.6006L7.83578 34.4983C8.43848 33.9636 9.35786 34.0223 9.93987 34.5791C12.6533 37.1766 16.1072 38.8941 19.8448 39.4827C24.0649 40.1473 28.3854 39.3323 32.0704 37.1755C35.7552 35.0191 38.5765 31.655 40.0534 27.6562C41.5303 23.6574 41.5716 19.2715 40.1702 15.2458C38.7685 11.2202 36.0108 7.80379 32.3672 5.57876C28.7234 3.35377 24.4189 2.45781 20.1871 3.04358C15.9554 3.62936 12.0581 5.66056 9.15949 8.7912C6.5922 11.5639 4.94893 15.047 4.43334 18.7628C4.32275 19.5598 3.63771 20.1742 2.8325 20.1272L2.67802 20.1182Z" fill="#2F80ED"/>
<path d="M26.772 12.5469H30.8103C30.9976 12.5469 31.1597 12.6149 31.2959 12.7508C31.4321 12.8868 31.5003 13.0483 31.5003 13.2352V29.7043C31.5003 29.8911 31.4321 30.0525 31.2959 30.1887C31.1597 30.3245 30.9976 30.3926 30.8103 30.3926H26.1841C25.9967 30.3926 25.8348 30.3245 25.6985 30.1887C25.5622 30.0525 25.494 29.8911 25.494 29.7043V22.7189L23.8072 25.4722C23.5345 25.8972 23.2193 26.1096 22.8615 26.1096H21.0724C20.7146 26.1096 20.3994 25.8972 20.1267 25.4722L18.4399 22.7189V29.7043C18.4399 29.8911 18.3717 30.0525 18.2354 30.1887C18.0991 30.3245 17.9372 30.3926 17.7498 30.3926H13.1237C12.9363 30.3926 12.7744 30.3245 12.6381 30.1887C12.5018 30.0525 12.4336 29.8911 12.4336 29.7043V13.2352C12.4336 13.0483 12.5018 12.8868 12.6381 12.7508C12.7744 12.6149 12.9363 12.5469 13.1237 12.5469H17.1619C17.639 12.5469 18.0054 12.7763 18.261 13.2352L21.9669 19.3537L25.6729 13.2352C25.9285 12.7763 26.2949 12.5469 26.772 12.5469Z" fill="#2F80ED"/>
</g>
<defs>
<filter id="filter0_d" x="-2.65625" y="-0.199219" width="50.9239" height="50.9754" filterUnits="userSpaceOnUse" color-interpolation-filters="sRGB">
<feFlood flood-opacity="0" result="BackgroundImageFix"/>
<feColorMatrix in="SourceAlpha" type="matrix" values="0 0 0 0 0 0 0 0 0 0 0 0 0 0 0 0 0 0 127 0"/>
<feOffset dy="4"/>
<feGaussianBlur stdDeviation="2"/>
<feColorMatrix type="matrix" values="0 0 0 0 0 0 0 0 0 0 0 0 0 0 0 0 0 0 0.05 0"/>
<feBlend mode="normal" in2="BackgroundImageFix" result="effect1_dropShadow"/>
<feBlend mode="normal" in="SourceGraphic" in2="effect1_dropShadow" result="shape"/>
</filter>
<filter id="filter1_d" x="8.43359" y="12.5469" width="27.0667" height="25.8457" filterUnits="userSpaceOnUse" color-interpolation-filters="sRGB">
<feFlood flood-opacity="0" result="BackgroundImageFix"/>
<feColorMatrix in="SourceAlpha" type="matrix" values="0 0 0 0 0 0 0 0 0 0 0 0 0 0 0 0 0 0 127 0"/>
<feOffset dy="4"/>
<feGaussianBlur stdDeviation="2"/>
<feColorMatrix type="matrix" values="0 0 0 0 0 0 0 0 0 0 0 0 0 0 0 0 0 0 0.05 0"/>
<feBlend mode="normal" in2="BackgroundImageFix" result="effect1_dropShadow"/>
<feBlend mode="normal" in="SourceGraphic" in2="effect1_dropShadow" result="shape"/>
</filter>
<filter id="filter2_d" x="48" y="11" width="95" height="30" filterUnits="userSpaceOnUse" color-interpolation-filters="sRGB">
<feFlood flood-opacity="0" result="BackgroundImageFix"/>
<feColorMatrix in="SourceAlpha" type="matrix" values="0 0 0 0 0 0 0 0 0 0 0 0 0 0 0 0 0 0 127 0"/>
<feOffset dy="4"/>
<feGaussianBlur stdDeviation="2"/>
<feColorMatrix type="matrix" values="0 0 0 0 0 0 0 0 0 0 0 0 0 0 0 0 0 0 0.05 0"/>
<feBlend mode="normal" in2="BackgroundImageFix" result="effect1_dropShadow"/>
<feBlend mode="normal" in="SourceGraphic" in2="effect1_dropShadow" result="shape"/>
</filter>
<clipPath id="clip0">
<rect width="139" height="43" fill="white"/>
</clipPath>
</defs>
</svg>
