<svg width="20" height="19" viewBox="0 0 20 19" fill="none" xmlns="http://www.w3.org/2000/svg">
    <path d="M18 0H4.693C4.28611 0.0013509 3.88922 0.126159 3.55478 0.357923C3.22035 0.589686 2.96413 0.917492 2.82 1.298L0.0630013 8.649C0.0211408 8.76128 -0.000198357 8.88017 1.38939e-06 9V11C1.38939e-06 12.103 0.897001 13 2 13H7.612L6.49 16.367C6.38997 16.6676 6.36264 16.9877 6.41027 17.301C6.4579 17.6142 6.57913 17.9117 6.764 18.169C7.14 18.689 7.746 19 8.388 19H10C10.297 19 10.578 18.868 10.769 18.64L15.469 13H18C19.103 13 20 12.103 20 11V2C20 0.897 19.103 0 18 0ZM9.531 17H8.386L9.948 12.316C9.99804 12.1657 10.0117 12.0058 9.98781 11.8492C9.96392 11.6926 9.9032 11.544 9.81064 11.4155C9.71807 11.287 9.59631 11.1823 9.45538 11.1101C9.31444 11.0379 9.15837 11.0001 9 11H2V9.181L4.693 2H14V11.638L9.531 17ZM16 11V2H18L18.001 11H16Z" fill="#666666"/>
</svg>
