<svg width="350" height="366" viewBox="0 0 350 366" fill="none" xmlns="http://www.w3.org/2000/svg">
<path opacity="0.18" d="M124.686 65.2591C97.665 81.6132 63.5826 85.4392 39.4806 105.838C30.9726 113.046 24.106 122.048 18.5739 131.713C0.592941 163.159 -3.09722 202.406 8.72509 236.646C20.5474 270.886 47.6754 299.531 81.2628 313.247C97.3266 319.805 114.55 323.037 131.76 325.294C163.489 329.448 195.556 330.411 227.479 328.169C247.659 326.75 268.966 323.55 284.491 310.609C294.841 301.982 301.583 289.81 306.795 277.4C320.89 243.659 325.248 206.656 319.376 170.573C315.786 148.749 308.362 127.387 296.132 108.945C275.557 77.9061 243.179 57.5446 209.999 42.0532C196.974 36.0017 180.327 25.4365 165.805 31.5506C150.536 37.9897 139.234 56.4569 124.686 65.2591Z" fill="#3377FF"/>
<path opacity="0.52" d="M10.7555 326.921C7.90484 327.465 4.9101 328.096 2.74863 330.047C-1.37383 333.735 -0.528033 340.812 3.09322 344.988C6.71446 349.164 12.2278 351.108 17.503 352.702C61.5595 365.924 108.347 366.018 154.346 365.999C168.399 365.999 182.821 365.924 195.947 360.911C205.044 357.441 213.119 351.727 222.091 347.932C255.766 333.679 295.168 348.464 330.772 340.08C334.951 339.099 339.594 337.311 341.047 333.279C343.986 325.152 332.107 320.182 323.442 319.756C285.429 317.882 247.342 318.061 209.348 320.294C178.993 322.076 151.339 313.086 120.872 314.318C83.9045 315.797 47.0982 320.01 10.7555 326.921Z" fill="url(#paint0_linear)"/>
<path d="M184.086 319.712H173.999C170.553 319.712 167.247 318.349 164.807 315.921C162.366 313.492 160.99 310.198 160.98 306.759V12.9908C160.982 9.54593 162.354 6.24263 164.795 3.80674C167.237 1.37086 170.547 0.00165658 173.999 0H184.086C180.633 0 177.322 1.36867 174.881 3.80491C172.439 6.24116 171.067 9.54542 171.067 12.9908V306.759C171.076 310.198 172.451 313.494 174.892 315.922C177.333 318.351 180.639 319.714 184.086 319.712Z" fill="#3377FF"/>
<path d="M184.086 319.712H173.999C170.553 319.712 167.247 318.349 164.807 315.921C162.366 313.492 160.99 310.198 160.98 306.759V12.9908C160.982 9.54593 162.354 6.24263 164.795 3.80674C167.237 1.37086 170.547 0.00165658 173.999 0H184.086C180.633 0 177.322 1.36867 174.881 3.80491C172.439 6.24116 171.067 9.54542 171.067 12.9908V306.759C171.076 310.198 172.451 313.494 174.892 315.922C177.333 318.351 180.639 319.714 184.086 319.712Z" fill="url(#paint1_linear)"/>
<path d="M89.3011 101.139C89.3011 101.139 60.6507 138.248 63.5702 154.902C66.4898 171.557 73.5255 188.523 73.5255 188.523L92.747 106.628L89.3011 101.139Z" fill="#3377FF"/>
<path d="M89.3011 101.139C89.3011 101.139 60.6507 138.248 63.5702 154.902C66.4898 171.557 73.5255 188.523 73.5255 188.523L92.747 106.628L89.3011 101.139Z" fill="url(#paint2_linear)"/>
<path d="M336.981 0H184.068C176.878 0 171.049 5.81618 171.049 12.9908V306.721C171.049 313.896 176.878 319.712 184.068 319.712H336.981C344.171 319.712 350 313.896 350 306.721V12.9908C350 5.81618 344.171 0 336.981 0Z" fill="#3377FF"/>
<path opacity="0.34" d="M262.363 36.0285H185.264C184.665 36.0285 184.071 35.9106 183.517 35.6814C182.964 35.4523 182.46 35.1165 182.037 34.6933C181.613 34.27 181.277 33.7675 181.049 33.2146C180.82 32.6618 180.702 32.0693 180.703 31.4711C180.703 30.264 181.184 29.1064 182.039 28.2529C182.894 27.3994 184.054 26.9199 185.264 26.9199H262.363C263.573 26.9199 264.734 27.3992 265.59 28.2525C266.447 29.1059 266.929 30.2635 266.93 31.4711C266.93 32.6798 266.449 33.839 265.592 34.6936C264.736 35.5483 263.574 36.0285 262.363 36.0285Z" fill="white"/>
<path opacity="0.34" d="M262.363 82.4699H185.264C184.06 82.4699 182.904 81.9947 182.05 81.1479C181.196 80.3012 180.711 79.1516 180.703 77.95C180.702 77.3518 180.82 76.7593 181.049 76.2064C181.277 75.6535 181.613 75.1511 182.037 74.7278C182.46 74.3045 182.964 73.9687 183.517 73.7396C184.071 73.5105 184.665 73.3926 185.264 73.3926H262.363C263.574 73.3926 264.736 73.8727 265.592 74.7274C266.449 75.5821 266.93 76.7413 266.93 77.95C266.92 79.1522 266.435 80.3017 265.579 81.1483C264.724 81.9949 263.568 82.4699 262.363 82.4699Z" fill="white"/>
<path opacity="0.34" d="M262.363 128.915H185.264C184.054 128.915 182.894 128.436 182.039 127.582C181.184 126.729 180.703 125.571 180.703 124.364C180.702 123.766 180.82 123.173 181.049 122.62C181.277 122.068 181.613 121.565 182.037 121.142C182.46 120.719 182.964 120.383 183.517 120.154C184.071 119.925 184.665 119.807 185.264 119.807H262.363C263.574 119.807 264.736 120.287 265.592 121.141C266.449 121.996 266.93 123.155 266.93 124.364C266.929 125.572 266.447 126.729 265.59 127.583C264.734 128.436 263.573 128.915 262.363 128.915Z" fill="white"/>
<path opacity="0.34" d="M262.363 175.363H185.264C184.054 175.361 182.894 174.88 182.039 174.026C181.183 173.171 180.703 172.013 180.703 170.805C180.702 170.207 180.82 169.615 181.049 169.062C181.277 168.509 181.613 168.007 182.037 167.583C182.46 167.16 182.964 166.824 183.517 166.595C184.071 166.366 184.665 166.248 185.264 166.248H262.363C263.574 166.248 264.736 166.728 265.592 167.583C266.449 168.438 266.93 169.597 266.93 170.805C266.929 172.014 266.447 173.172 265.591 174.026C264.734 174.881 263.574 175.361 262.363 175.363Z" fill="white"/>
<path opacity="0.34" d="M262.363 221.806H185.264C184.054 221.805 182.894 221.324 182.039 220.469C181.183 219.615 180.703 218.456 180.703 217.249C180.702 216.651 180.82 216.058 181.049 215.505C181.277 214.952 181.613 214.45 182.037 214.027C182.46 213.603 182.964 213.268 183.517 213.038C184.071 212.809 184.665 212.691 185.264 212.691H262.363C263.574 212.691 264.736 213.172 265.592 214.026C266.449 214.881 266.93 216.04 266.93 217.249C266.929 218.457 266.447 219.615 265.591 220.47C264.734 221.324 263.574 221.805 262.363 221.806Z" fill="white"/>
<path opacity="0.34" d="M262.363 268.248H185.264C184.665 268.248 184.071 268.13 183.517 267.901C182.964 267.671 182.46 267.336 182.037 266.912C181.613 266.489 181.277 265.987 181.049 265.434C180.82 264.881 180.702 264.288 180.703 263.69C180.703 262.483 181.183 261.324 182.039 260.47C182.894 259.615 184.054 259.134 185.264 259.133H262.363C263.574 259.134 264.734 259.615 265.591 260.469C266.447 261.324 266.929 262.482 266.93 263.69C266.93 264.899 266.449 266.058 265.592 266.913C264.736 267.767 263.574 268.248 262.363 268.248Z" fill="white"/>
<path d="M75.9512 198.943C81.3705 188.547 107.759 210.946 111.092 222.074C114.425 233.202 92.748 272.287 81.4958 284.352C70.2437 296.418 49.387 307.214 36.0611 310.959C36.0611 310.959 31.3622 304.707 32.302 302.138C33.2418 299.569 60.8585 279.482 63.3583 267.348C65.8581 255.214 70.5318 209.346 75.9512 198.943Z" fill="#302F47"/>
<path d="M203.301 102.163C203.301 102.163 199.968 92.5043 200.526 91.4415C201.083 90.3788 204.322 87.9281 205.851 89.3597C207.38 90.7914 210.481 99.6686 210.481 99.6686L243.028 88.5783C243.028 88.5783 246.662 88.0157 246.28 91.9792C245.898 95.9427 210.876 109.834 210.876 109.834C210.876 109.834 208.025 112.747 203.301 102.163Z" fill="#3377FF"/>
<path d="M203.301 102.163C203.301 102.163 199.968 92.5043 200.526 91.4415C201.083 90.3788 204.322 87.9281 205.851 89.3597C207.38 90.7914 210.481 99.6686 210.481 99.6686L243.028 88.5783C243.028 88.5783 246.662 88.0157 246.28 91.9792C245.898 95.9427 210.876 109.834 210.876 109.834C210.876 109.834 208.025 112.747 203.301 102.163Z" fill="url(#paint3_linear)"/>
<path d="M125.382 47.3622C125.382 47.3622 135.537 65.0541 133.526 75.7756C131.515 86.4971 125.77 84.0902 123.734 89.6354C122.457 93.2714 121.637 97.051 121.29 100.888C121.29 100.888 115.395 105.664 104.838 92.6674C105.778 87.3765 105.209 81.9286 103.197 76.9446C99.8323 68.9364 101.649 40.0291 125.382 47.3622Z" fill="url(#paint4_linear)"/>
<path d="M94.0813 38.2349C78.5312 53.0386 72.1533 44.0613 64.3846 48.1561C56.6158 52.2509 53.6273 53.7138 56.4467 69.1364C59.266 84.5591 45.3699 81.227 42.0368 90.5606C32.5076 117.236 48.302 121.894 65.9321 121.156C83.5622 120.418 81.9019 88.31 94.8958 87.066C107.89 85.8219 110.559 87.7599 115.815 71.1057C118.91 61.3095 116.705 57.0334 120.909 53.7075C126.278 49.4627 128.151 40.2666 122.544 36.3469C116.373 32.0333 103.974 28.82 94.0813 38.2349Z" fill="#3F3D56"/>
<path d="M92.98 98.6931C92.98 98.6931 91.6832 92.7791 95.9434 90.7474C100.204 88.7156 112.414 87.7341 114.112 90.7474C115.81 93.7606 117.671 100.587 119.488 100.75C121.305 100.912 128.766 112.753 128.766 112.753C128.766 112.753 130.326 145.649 130.414 158.421C130.558 178.713 118.373 210.39 101.551 207.808C84.7288 205.226 72.4554 200.563 72.7311 191.86C73.0068 183.158 87.2161 117.598 86.2012 110.215C85.0985 102.25 92.6918 98.418 92.98 98.6931Z" fill="#3377FF"/>
<path d="M92.98 98.6931C92.98 98.6931 91.6832 92.7791 95.9434 90.7474C100.204 88.7156 112.414 87.7341 114.112 90.7474C115.81 93.7606 117.671 100.587 119.488 100.75C121.305 100.912 128.766 112.753 128.766 112.753C128.766 112.753 130.326 145.649 130.414 158.421C130.558 178.713 118.373 210.39 101.551 207.808C84.7288 205.226 72.4554 200.563 72.7311 191.86C73.0068 183.158 87.2161 117.598 86.2012 110.215C85.0985 102.25 92.6918 98.418 92.98 98.6931Z" fill="url(#paint5_linear)"/>
<path d="M108.084 108.952C108.084 108.952 114.562 96.1989 123.747 103.951C132.931 111.703 144.202 140.366 152.046 140.529C159.89 140.691 192.143 114.76 194.956 117.104C197.769 119.449 202.656 125.3 200.025 130.295C197.393 135.29 161.331 166.798 145.8 163.847C130.269 160.897 97.1635 139.735 108.084 108.952Z" fill="#3377FF"/>
<path d="M108.084 108.952C108.084 108.952 114.562 96.1989 123.747 103.951C132.931 111.703 144.202 140.366 152.046 140.529C159.89 140.691 192.143 114.76 194.956 117.104C197.769 119.449 202.656 125.3 200.025 130.295C197.393 135.29 161.331 166.798 145.8 163.847C130.269 160.897 97.1635 139.735 108.084 108.952Z" fill="url(#paint6_linear)"/>
<path d="M195.99 118.042C195.99 118.042 202.544 105.864 203.082 103.664C203.621 101.463 205.256 104.77 205.256 104.77C205.256 104.77 210.895 100.332 211.835 98.3937C212.775 96.4557 220.938 93.4549 224.622 93.9363C228.306 94.4177 222.116 96.6745 222.116 96.6745C222.116 96.6745 219.196 98.0061 217.668 105.32C216.139 112.635 214.591 118.893 207.825 121.962C201.059 125.032 200.626 125.713 200.626 125.713C200.626 125.713 199.029 119.274 195.99 118.042Z" fill="url(#paint7_linear)"/>
<path d="M75.9502 198.944C75.9502 198.944 67.8807 217.374 82.8857 234.578C97.8907 251.782 109.08 265.211 105.916 291.836C102.752 318.462 110.339 332.184 110.339 332.184H119.186C119.186 332.184 132.913 282.859 130.545 261.972C128.176 241.086 117.845 199.006 117.845 199.006C117.845 199.006 97.6275 189.379 75.9502 198.944Z" fill="#3F3D56"/>
<path d="M110.34 332.17V343.423H134.711C134.711 343.423 120.12 340.791 119.706 337.796C119.293 334.802 119.186 332.17 119.186 332.17H110.34Z" fill="url(#paint8_linear)"/>
<path d="M112.144 339.966C111.041 339.741 109.669 339.466 108.974 340.348C108.745 340.677 108.599 341.057 108.548 341.454C108.331 342.547 108.251 343.662 108.31 344.774C108.354 345.605 108.548 346.543 109.268 346.956C109.721 347.162 110.221 347.242 110.716 347.187L135.989 346.724C136.954 346.724 138.069 346.618 138.614 345.824C138.861 345.433 138.972 344.971 138.928 344.511C138.858 343.886 138.654 343.283 138.329 342.744C138.005 342.204 137.568 341.741 137.048 341.386C136 340.672 134.836 340.145 133.608 339.829C130.476 338.879 125.464 337.103 122.369 338.397C118.992 339.791 115.872 340.748 112.144 339.966Z" fill="#3F3D56"/>
<path d="M32.0574 303.828L22.0332 308.936L34.2377 329.985C34.2377 329.985 29.2256 316.062 31.5938 314.212C33.962 312.362 36.2049 310.955 36.2049 310.955L32.0574 303.828Z" fill="url(#paint9_linear)"/>
<path d="M25.8919 308.78C25.5411 307.711 25.09 306.391 23.9748 306.229C23.5773 306.192 23.177 306.255 22.8095 306.41C21.7513 306.774 20.7414 307.265 19.8022 307.873C19.1068 308.323 18.3926 308.961 18.3926 309.792C18.4408 310.285 18.6203 310.755 18.9126 311.155C23.2648 318.357 27.6169 325.559 31.9691 332.761C32.4703 333.58 33.1094 334.499 34.068 334.574C34.5311 334.589 34.9867 334.453 35.3648 334.186C35.8789 333.814 36.3059 333.335 36.6163 332.783C36.9268 332.23 37.1133 331.617 37.1629 330.985C37.2566 329.723 37.1315 328.454 36.7933 327.234C36.0603 324.065 35.0704 318.82 32.4077 316.807C29.4756 314.6 27.0823 312.387 25.8919 308.78Z" fill="#3F3D56"/>
<path opacity="0.34" d="M315.805 15.0586H289.698C287.729 15.0586 286.133 16.6512 286.133 18.6157V40.5088C286.133 42.4734 287.729 44.0659 289.698 44.0659H315.805C317.773 44.0659 319.369 42.4734 319.369 40.5088V18.6157C319.369 16.6512 317.773 15.0586 315.805 15.0586Z" fill="white"/>
<path opacity="0.34" d="M315.805 65.4707H289.698C287.729 65.4707 286.133 67.0633 286.133 69.0279V90.9209C286.133 92.8855 287.729 94.4781 289.698 94.4781H315.805C317.773 94.4781 319.369 92.8855 319.369 90.9209V69.0279C319.369 67.0633 317.773 65.4707 315.805 65.4707Z" fill="white"/>
<path opacity="0.34" d="M315.805 111.217H289.698C287.729 111.217 286.133 112.809 286.133 114.774V136.667C286.133 138.632 287.729 140.224 289.698 140.224H315.805C317.773 140.224 319.369 138.632 319.369 136.667V114.774C319.369 112.809 317.773 111.217 315.805 111.217Z" fill="white"/>
<path opacity="0.34" d="M315.805 201.721H289.698C287.729 201.721 286.133 203.313 286.133 205.278V227.171C286.133 229.135 287.729 230.728 289.698 230.728H315.805C317.773 230.728 319.369 229.135 319.369 227.171V205.278C319.369 203.313 317.773 201.721 315.805 201.721Z" fill="white"/>
<path opacity="0.34" d="M315.805 156.297H289.698C287.729 156.297 286.133 157.889 286.133 159.854V181.747C286.133 183.712 287.729 185.304 289.698 185.304H315.805C317.773 185.304 319.369 183.712 319.369 181.747V159.854C319.369 157.889 317.773 156.297 315.805 156.297Z" fill="white"/>
<path opacity="0.34" d="M315.805 249.186H289.698C287.729 249.186 286.133 250.778 286.133 252.743V274.636C286.133 276.6 287.729 278.193 289.698 278.193H315.805C317.773 278.193 319.369 276.6 319.369 274.636V252.743C319.369 250.778 317.773 249.186 315.805 249.186Z" fill="white"/>
<path d="M288.463 25.3304L294.44 35.3329C296.32 38.4587 299.553 39.0838 301.896 36.8458L322.126 17.4159C322.126 17.4159 324.005 14.7339 322.007 12.6584C320.008 10.5829 318.354 12.971 318.354 12.971L300.436 30.1503C299.302 31.1818 297.755 30.8443 296.877 29.3626L292.116 21.3168C291.22 19.8102 289.56 19.6727 288.576 21.0605C288.173 21.6957 287.949 22.4281 287.929 23.1799C287.909 23.9317 288.094 24.6748 288.463 25.3304Z" fill="#3377FF"/>
<path d="M288.463 74.8245L294.44 84.827C296.319 87.9216 299.552 88.578 301.895 86.3399L322.125 66.91C322.125 66.91 324.005 64.2281 322.006 62.1525C320.008 60.077 318.354 62.4651 318.354 62.4651L300.436 79.6445C299.302 80.676 297.754 80.3384 296.877 78.8568L292.115 70.811C291.213 69.2918 289.559 69.1543 288.576 70.5172C288.165 71.1566 287.937 71.8959 287.917 72.6551C287.898 73.4144 288.086 74.1645 288.463 74.8245Z" fill="#3377FF"/>
<path d="M288.463 169.13L294.44 179.132C296.319 182.227 299.552 182.883 301.895 180.645L322.125 161.209C322.125 161.209 324.005 158.527 322.006 156.451C320.008 154.376 318.354 156.764 318.354 156.764L300.436 173.95C299.302 174.981 297.754 174.637 296.877 173.162L292.115 165.116C291.213 163.597 289.559 163.459 288.576 164.822C288.165 165.462 287.937 166.201 287.917 166.96C287.898 167.719 288.086 168.47 288.463 169.13Z" fill="#3377FF"/>
<path d="M288.463 214.893L294.44 224.896C296.319 227.99 299.552 228.647 301.895 226.409L322.125 206.979C322.125 206.979 324.005 204.291 322.006 202.215C320.008 200.14 318.354 202.528 318.354 202.528L300.436 219.713C299.302 220.745 297.754 220.401 296.877 218.926L292.115 210.88C291.213 209.361 289.559 209.223 288.576 210.586C288.165 211.225 287.937 211.965 287.917 212.724C287.898 213.483 288.086 214.233 288.463 214.893Z" fill="#3377FF"/>
<path d="M288.463 259.465L294.44 269.468C296.32 272.593 299.553 273.219 301.896 270.987L322.126 251.551C322.126 251.551 324.006 248.869 322.007 246.793C320.008 244.718 318.354 247.106 318.354 247.106L300.436 264.285C299.302 265.323 297.755 264.979 296.878 263.497L292.116 255.495C291.214 253.976 289.56 253.839 288.576 255.202C288.174 255.836 287.951 256.567 287.931 257.318C287.911 258.068 288.095 258.81 288.463 259.465Z" fill="#3377FF"/>
<path d="M288.463 25.3304L294.44 35.3329C296.32 38.4587 299.553 39.0838 301.896 36.8458L322.126 17.4159C322.126 17.4159 324.005 14.7339 322.007 12.6584C320.008 10.5829 318.354 12.971 318.354 12.971L300.436 30.1503C299.302 31.1818 297.755 30.8443 296.877 29.3626L292.116 21.3168C291.22 19.8102 289.56 19.6727 288.576 21.0605C288.173 21.6957 287.949 22.4281 287.929 23.1799C287.909 23.9317 288.094 24.6748 288.463 25.3304Z" fill="url(#paint10_linear)"/>
<path d="M288.463 74.8245L294.44 84.827C296.319 87.9216 299.552 88.578 301.895 86.3399L322.125 66.91C322.125 66.91 324.005 64.2281 322.006 62.1525C320.008 60.077 318.354 62.4651 318.354 62.4651L300.436 79.6445C299.302 80.676 297.754 80.3384 296.877 78.8568L292.115 70.811C291.213 69.2918 289.559 69.1543 288.576 70.5172C288.165 71.1566 287.937 71.8959 287.917 72.6551C287.898 73.4144 288.086 74.1645 288.463 74.8245Z" fill="url(#paint11_linear)"/>
<path d="M288.463 169.13L294.44 179.132C296.319 182.227 299.552 182.883 301.895 180.645L322.125 161.209C322.125 161.209 324.005 158.527 322.006 156.451C320.008 154.376 318.354 156.764 318.354 156.764L300.436 173.95C299.302 174.981 297.754 174.637 296.877 173.162L292.115 165.116C291.213 163.597 289.559 163.459 288.576 164.822C288.165 165.462 287.937 166.201 287.917 166.96C287.898 167.719 288.086 168.47 288.463 169.13Z" fill="url(#paint12_linear)"/>
<path d="M288.463 214.893L294.44 224.896C296.319 227.99 299.552 228.647 301.895 226.409L322.125 206.979C322.125 206.979 324.005 204.291 322.006 202.215C320.008 200.14 318.354 202.528 318.354 202.528L300.436 219.713C299.302 220.745 297.754 220.401 296.877 218.926L292.115 210.88C291.213 209.361 289.559 209.223 288.576 210.586C288.165 211.225 287.937 211.965 287.917 212.724C287.898 213.483 288.086 214.233 288.463 214.893Z" fill="url(#paint13_linear)"/>
<path d="M288.463 259.465L294.44 269.468C296.32 272.593 299.553 273.219 301.896 270.987L322.126 251.551C322.126 251.551 324.006 248.869 322.007 246.793C320.008 244.718 318.354 247.106 318.354 247.106L300.436 264.285C299.302 265.323 297.755 264.979 296.878 263.497L292.116 255.495C291.214 253.976 289.56 253.839 288.576 255.202C288.174 255.836 287.951 256.567 287.931 257.318C287.911 258.068 288.095 258.81 288.463 259.465Z" fill="url(#paint14_linear)"/>
<defs>
<linearGradient id="paint0_linear" x1="172.459" y1="276.458" x2="162.621" y2="610.194" gradientUnits="userSpaceOnUse">
<stop stop-opacity="0"/>
<stop offset="0.98"/>
</linearGradient>
<linearGradient id="paint1_linear" x1="11223.6" y1="49833.5" x2="-5624.55" y2="50812.7" gradientUnits="userSpaceOnUse">
<stop stop-opacity="0"/>
<stop offset="0.98"/>
</linearGradient>
<linearGradient id="paint2_linear" x1="4932.56" y1="19688.4" x2="8318.53" y2="20118" gradientUnits="userSpaceOnUse">
<stop stop-opacity="0"/>
<stop offset="0.98"/>
</linearGradient>
<linearGradient id="paint3_linear" x1="20103.8" y1="2937.06" x2="19172.8" y2="6644.38" gradientUnits="userSpaceOnUse">
<stop stop-opacity="0"/>
<stop offset="0.98"/>
</linearGradient>
<linearGradient id="paint4_linear" x1="101.9" y1="73.9564" x2="133.789" y2="73.9564" gradientUnits="userSpaceOnUse">
<stop stop-color="#ECC4D7"/>
<stop offset="0.42" stop-color="#EFD4D1"/>
<stop offset="1" stop-color="#F2EAC9"/>
</linearGradient>
<linearGradient id="paint5_linear" x1="15032.6" y1="29284.9" x2="-11065.1" y2="27438.2" gradientUnits="userSpaceOnUse">
<stop stop-opacity="0"/>
<stop offset="0.98"/>
</linearGradient>
<linearGradient id="paint6_linear" x1="29556.7" y1="13387" x2="28711" y2="22835.7" gradientUnits="userSpaceOnUse">
<stop stop-opacity="0"/>
<stop offset="0.98"/>
</linearGradient>
<linearGradient id="paint7_linear" x1="11520.2" y1="5822.03" x2="12937.6" y2="5822.03" gradientUnits="userSpaceOnUse">
<stop stop-color="#ECC4D7"/>
<stop offset="0.42" stop-color="#EFD4D1"/>
<stop offset="1" stop-color="#F2EAC9"/>
</linearGradient>
<linearGradient id="paint8_linear" x1="6039.65" y1="6460.81" x2="6987.7" y2="6460.81" gradientUnits="userSpaceOnUse">
<stop stop-color="#ECC4D7"/>
<stop offset="0.42" stop-color="#EFD4D1"/>
<stop offset="1" stop-color="#F2EAC9"/>
</linearGradient>
<linearGradient id="paint9_linear" x1="1471.94" y1="13675.9" x2="1792.51" y2="13675.9" gradientUnits="userSpaceOnUse">
<stop stop-color="#ECC4D7"/>
<stop offset="0.42" stop-color="#EFD4D1"/>
<stop offset="1" stop-color="#F2EAC9"/>
</linearGradient>
<linearGradient id="paint10_linear" x1="19917.3" y1="-2153.68" x2="18606.8" y2="30718" gradientUnits="userSpaceOnUse">
<stop stop-opacity="0"/>
<stop offset="0.98"/>
</linearGradient>
<linearGradient id="paint11_linear" x1="20070" y1="-2097.64" x2="18760.8" y2="30762.8" gradientUnits="userSpaceOnUse">
<stop stop-opacity="0"/>
<stop offset="0.98"/>
</linearGradient>
<linearGradient id="paint12_linear" x1="20348.6" y1="-1992.52" x2="19038.8" y2="30875.4" gradientUnits="userSpaceOnUse">
<stop stop-opacity="0"/>
<stop offset="0.98"/>
</linearGradient>
<linearGradient id="paint13_linear" x1="20483.8" y1="-1941.48" x2="19174" y2="30926.8" gradientUnits="userSpaceOnUse">
<stop stop-opacity="0"/>
<stop offset="0.98"/>
</linearGradient>
<linearGradient id="paint14_linear" x1="20608.2" y1="-1891.96" x2="19297.3" y2="30981.4" gradientUnits="userSpaceOnUse">
<stop stop-opacity="0"/>
<stop offset="0.98"/>
</linearGradient>
</defs>
</svg>
