<svg width="148" height="53" viewBox="0 0 148 53" fill="none" xmlns="http://www.w3.org/2000/svg">
<g clip-path="url(#clip0)" filter="url(#filter0_d)">
<g filter="url(#filter1_d)">
<path d="M6.67802 23.1182C5.87281 23.0712 5.25313 22.3809 5.35467 21.5827C5.91769 17.1579 7.84977 13.004 10.9 9.70971C14.2814 6.05768 18.8278 3.6881 23.7644 3.00479C28.701 2.32145 33.7224 3.36662 37.973 5.96222C42.2238 8.55782 45.4405 12.5432 47.0755 17.2394C48.7105 21.9356 48.6623 27.052 46.9397 31.7167C45.2167 36.3816 41.9255 40.3062 37.6269 42.8218C33.3281 45.3376 28.2879 46.2885 23.365 45.5132C18.9244 44.8135 14.827 42.7482 11.6358 39.6237C11.0601 39.0603 11.1174 38.1353 11.7201 37.6006L11.8358 37.4983C12.4385 36.9636 13.3579 37.0223 13.9399 37.5791C16.6533 40.1766 20.1072 41.8941 23.8448 42.4827C28.0649 43.1473 32.3854 42.3323 36.0704 40.1755C39.7552 38.0191 42.5765 34.655 44.0534 30.6562C45.5303 26.6574 45.5716 22.2715 44.1702 18.2458C42.7685 14.2202 40.0108 10.8038 36.3672 8.57876C32.7234 6.35377 28.4189 5.45781 24.1871 6.04358C19.9554 6.62936 16.0581 8.66056 13.1595 11.7912C10.5922 14.5639 8.94893 18.047 8.43334 21.7628C8.32275 22.5598 7.63771 23.1742 6.8325 23.1272L6.67802 23.1182Z" fill="#3377FF"/>
</g>
<g filter="url(#filter2_d)">
<path d="M30.77 15.5469H34.8083C34.9956 15.5469 35.1577 15.6149 35.2939 15.7508C35.4301 15.8868 35.4984 16.0483 35.4984 16.2352V32.7043C35.4984 32.8911 35.4301 33.0525 35.2939 33.1887C35.1577 33.3245 34.9956 33.3926 34.8083 33.3926H30.1822C29.9947 33.3926 29.8328 33.3245 29.6965 33.1887C29.5602 33.0525 29.4921 32.8911 29.4921 32.7043V25.7189L27.8052 28.4722C27.5326 28.8972 27.2174 29.1096 26.8595 29.1096H25.0704C24.7126 29.1096 24.3974 28.8972 24.1248 28.4722L22.4379 25.7189V32.7043C22.4379 32.8911 22.3697 33.0525 22.2334 33.1887C22.0971 33.3245 21.9352 33.3926 21.7478 33.3926H17.1217C16.9343 33.3926 16.7724 33.3245 16.6361 33.1887C16.4998 33.0525 16.4316 32.8911 16.4316 32.7043V16.2352C16.4316 16.0483 16.4998 15.8868 16.6361 15.7508C16.7724 15.6149 16.9343 15.5469 17.1217 15.5469H21.16C21.6371 15.5469 22.0034 15.7763 22.259 16.2352L25.965 22.3537L29.671 16.2352C29.9266 15.7763 30.2929 15.5469 30.77 15.5469Z" fill="#3377FF"/>
</g>
<g filter="url(#filter3_d)">
<path d="M56.8154 14.3056H65.8149C68.7141 14.3056 70.9791 14.937 72.6099 16.2C74.2407 17.463 75.0561 19.3269 75.0561 21.7916C75.0561 24.2565 74.2407 26.0796 72.6099 27.2611C70.9994 28.4425 68.7344 29.0333 65.8149 29.0333H63.852V34.8694C63.852 35.0934 63.7713 35.2867 63.6103 35.45C63.4494 35.6128 63.2579 35.6944 63.0366 35.6944H56.8154C56.5941 35.6944 56.4025 35.6128 56.2416 35.45C56.0807 35.2867 56 35.0934 56 34.8694V15.1306C56 14.9065 56.0807 14.713 56.2416 14.55C56.4025 14.387 56.5941 14.3056 56.8154 14.3056ZM63.701 19.9889V23.3805H65.8149C66.1773 23.3805 66.4996 23.2481 66.7813 22.9833C67.0631 22.6981 67.2041 22.3009 67.2041 21.7916C67.2041 21.2824 67.0933 20.8546 66.8719 20.5083C66.6506 20.162 66.2981 19.9889 65.8149 19.9889H63.701ZM83.6807 35.6944H78.2749C78.0536 35.6944 77.8621 35.6128 77.7011 35.45C77.5402 35.2867 77.4595 35.0934 77.4595 34.8694V14.825C77.4595 14.6009 77.5402 14.4074 77.7011 14.2444C77.8621 14.0815 78.0536 14 78.2749 14H83.6807C83.902 14 84.0936 14.0815 84.2545 14.2444C84.4154 14.4074 84.4961 14.6009 84.4961 14.825V34.8694C84.4961 35.0934 84.4154 35.2867 84.2545 35.45C84.0936 35.6128 83.902 35.6944 83.6807 35.6944ZM87.0631 31.1416C87.0631 28.3916 89.2677 26.6296 93.6768 25.8555L96.878 25.3361C96.878 24.725 96.828 24.3176 96.727 24.1138C96.6265 23.8898 96.3849 23.7777 96.0022 23.7777C95.6398 23.7777 95.2774 23.9407 94.915 24.2666C94.5526 24.5926 94.2105 24.7555 93.8882 24.7555H88.7543C88.3116 24.7555 88.0899 24.5416 88.0899 24.1138C88.0899 23.6657 88.2409 23.1972 88.5429 22.7083C88.8651 22.1991 89.3181 21.7 89.9019 21.2111C90.5059 20.7222 91.3415 20.3148 92.4084 19.9889C93.4956 19.663 94.7036 19.5 96.0324 19.5C98.7306 19.5 100.754 20.0704 102.103 21.2111C103.452 22.3518 104.126 23.9815 104.126 26.1V34.8694C104.126 35.0934 104.046 35.2867 103.884 35.45C103.723 35.6128 103.532 35.6944 103.311 35.6944H98.0256C97.8043 35.6944 97.6132 35.6128 97.4518 35.45C97.2909 35.2867 97.2102 35.0934 97.2102 34.8694V34.0138C96.2641 35.3378 94.8848 36 93.0728 36C91.2608 36 89.8013 35.5417 88.6939 34.625C87.6067 33.6879 87.0631 32.5268 87.0631 31.1416ZM95.0056 31.4777C96.3146 31.4777 96.9686 30.6833 96.9686 29.0944L95.1868 29.4916C94.3011 29.6953 93.858 30.0722 93.858 30.6222C93.858 30.8666 93.959 31.0703 94.16 31.2333C94.3615 31.3963 94.6432 31.4777 95.0056 31.4777ZM113.927 26.6805V28.8194C113.927 29.512 114.018 30.011 114.199 30.3166C114.38 30.6222 114.662 30.7749 115.044 30.7749C115.427 30.7749 115.689 30.7138 115.83 30.5916C115.97 30.449 116.111 30.1944 116.252 29.8277C116.413 29.4407 116.705 29.2472 117.128 29.2472H123.017C123.239 29.2472 123.43 29.3287 123.591 29.4916C123.752 29.6546 123.833 29.8685 123.833 30.1333C123.833 30.3981 123.742 30.7546 123.561 31.2027C123.38 31.6509 123.067 32.1601 122.625 32.7305C122.182 33.3009 121.638 33.8305 120.994 34.3194C120.349 34.7878 119.504 35.185 118.457 35.5111C117.41 35.8367 116.252 36 114.984 36C112.467 36 110.424 35.3378 108.854 34.0138C107.303 32.6694 106.528 30.8157 106.528 28.4527V27.0472C106.528 24.6842 107.303 22.8407 108.854 21.5166C110.424 20.1722 112.467 19.5 114.984 19.5C116.474 19.5 117.823 19.7343 119.031 20.2028C120.239 20.6509 121.165 21.2111 121.809 21.8833C122.474 22.5352 122.977 23.1768 123.319 23.8083C123.661 24.4398 123.833 24.9287 123.833 25.275C123.833 25.6009 123.752 25.8453 123.591 26.0083C123.43 26.1713 123.239 26.2527 123.017 26.2527H117.128C116.746 26.2527 116.454 26.0491 116.252 25.6416C115.97 25.0305 115.598 24.725 115.135 24.725C114.33 24.725 113.927 25.3768 113.927 26.6805ZM142.185 29.5527H133.185V29.7055C133.185 30.9481 133.578 31.5694 134.363 31.5694C134.585 31.5694 134.856 31.4064 135.178 31.0805C135.501 30.7546 135.853 30.5916 136.235 30.5916H141.943C142.386 30.5916 142.607 30.8157 142.607 31.2638C142.607 32.262 141.863 33.3009 140.373 34.3805C138.903 35.46 136.9 36 134.363 36C131.846 36 129.783 35.3378 128.172 34.0138C126.582 32.6694 125.786 30.8259 125.786 28.4833V27.0166C125.786 24.7963 126.602 22.9935 128.232 21.6083C129.863 20.2028 131.997 19.5 134.635 19.5C137.292 19.5 139.346 20.2842 140.795 21.8527C142.265 23.4213 143 25.4074 143 27.8111V28.7277C143 28.9518 142.92 29.1453 142.758 29.3083C142.597 29.4713 142.406 29.5527 142.185 29.5527ZM135.601 25.6111C135.601 24.3888 135.199 23.7777 134.393 23.7777C133.588 23.7777 133.185 24.3888 133.185 25.6111V25.7333H135.601V25.6111Z" fill="#3377FF"/>
</g>
<path d="M6.67802 23.1182C5.87281 23.0712 5.25313 22.3809 5.35467 21.5827C5.91769 17.1579 7.84977 13.004 10.9 9.70971C14.2814 6.05768 18.8278 3.6881 23.7644 3.00479C28.701 2.32145 33.7224 3.36662 37.973 5.96222C42.2238 8.55782 45.4405 12.5432 47.0755 17.2394C48.7105 21.9356 48.6623 27.052 46.9397 31.7167C45.2167 36.3816 41.9255 40.3062 37.6269 42.8218C33.3281 45.3376 28.2879 46.2885 23.365 45.5132C18.9244 44.8135 14.827 42.7482 11.6358 39.6237C11.0601 39.0603 11.1174 38.1353 11.7201 37.6006L11.8358 37.4983C12.4385 36.9636 13.3579 37.0223 13.9399 37.5791C16.6533 40.1766 20.1072 41.8941 23.8448 42.4827C28.0649 43.1473 32.3854 42.3323 36.0704 40.1755C39.7552 38.0191 42.5765 34.655 44.0534 30.6562C45.5303 26.6574 45.5716 22.2715 44.1702 18.2458C42.7685 14.2202 40.0108 10.8038 36.3672 8.57876C32.7234 6.35377 28.4189 5.45781 24.1871 6.04358C19.9554 6.62936 16.0581 8.66056 13.1595 11.7912C10.5922 14.5639 8.94893 18.047 8.43334 21.7628C8.32275 22.5598 7.63771 23.1742 6.8325 23.1272L6.67802 23.1182Z" fill="#3377FF"/>
<path d="M30.77 15.5469H34.8083C34.9956 15.5469 35.1577 15.6149 35.2939 15.7508C35.4301 15.8868 35.4984 16.0483 35.4984 16.2352V32.7043C35.4984 32.8911 35.4301 33.0525 35.2939 33.1887C35.1577 33.3245 34.9956 33.3926 34.8083 33.3926H30.1822C29.9947 33.3926 29.8328 33.3245 29.6965 33.1887C29.5602 33.0525 29.4921 32.8911 29.4921 32.7043V25.7189L27.8052 28.4722C27.5326 28.8972 27.2174 29.1096 26.8595 29.1096H25.0704C24.7126 29.1096 24.3974 28.8972 24.1248 28.4722L22.4379 25.7189V32.7043C22.4379 32.8911 22.3697 33.0525 22.2334 33.1887C22.0971 33.3245 21.9352 33.3926 21.7478 33.3926H17.1217C16.9343 33.3926 16.7724 33.3245 16.6361 33.1887C16.4998 33.0525 16.4316 32.8911 16.4316 32.7043V16.2352C16.4316 16.0483 16.4998 15.8868 16.6361 15.7508C16.7724 15.6149 16.9343 15.5469 17.1217 15.5469H21.16C21.6371 15.5469 22.0034 15.7763 22.259 16.2352L25.965 22.3537L29.671 16.2352C29.9266 15.7763 30.2929 15.5469 30.77 15.5469Z" fill="#3377FF"/>
<path d="M56.8154 14.3056H65.8149C68.7141 14.3056 70.9791 14.937 72.6099 16.2C74.2407 17.463 75.0561 19.3269 75.0561 21.7916C75.0561 24.2565 74.2407 26.0796 72.6099 27.2611C70.9994 28.4425 68.7344 29.0333 65.8149 29.0333H63.852V34.8694C63.852 35.0934 63.7713 35.2867 63.6103 35.45C63.4494 35.6128 63.2579 35.6944 63.0366 35.6944H56.8154C56.5941 35.6944 56.4025 35.6128 56.2416 35.45C56.0807 35.2867 56 35.0934 56 34.8694V15.1306C56 14.9065 56.0807 14.713 56.2416 14.55C56.4025 14.387 56.5941 14.3056 56.8154 14.3056ZM63.701 19.9889V23.3805H65.8149C66.1773 23.3805 66.4996 23.2481 66.7813 22.9833C67.0631 22.6981 67.2041 22.3009 67.2041 21.7916C67.2041 21.2824 67.0933 20.8546 66.8719 20.5083C66.6506 20.162 66.2981 19.9889 65.8149 19.9889H63.701ZM83.6807 35.6944H78.2749C78.0536 35.6944 77.8621 35.6128 77.7011 35.45C77.5402 35.2867 77.4595 35.0934 77.4595 34.8694V14.825C77.4595 14.6009 77.5402 14.4074 77.7011 14.2444C77.8621 14.0815 78.0536 14 78.2749 14H83.6807C83.902 14 84.0936 14.0815 84.2545 14.2444C84.4154 14.4074 84.4961 14.6009 84.4961 14.825V34.8694C84.4961 35.0934 84.4154 35.2867 84.2545 35.45C84.0936 35.6128 83.902 35.6944 83.6807 35.6944ZM87.0631 31.1416C87.0631 28.3916 89.2677 26.6296 93.6768 25.8555L96.878 25.3361C96.878 24.725 96.828 24.3176 96.727 24.1138C96.6265 23.8898 96.3849 23.7777 96.0022 23.7777C95.6398 23.7777 95.2774 23.9407 94.915 24.2666C94.5526 24.5926 94.2105 24.7555 93.8882 24.7555H88.7543C88.3116 24.7555 88.0899 24.5416 88.0899 24.1138C88.0899 23.6657 88.2409 23.1972 88.5429 22.7083C88.8651 22.1991 89.3181 21.7 89.9019 21.2111C90.5059 20.7222 91.3415 20.3148 92.4084 19.9889C93.4956 19.663 94.7036 19.5 96.0324 19.5C98.7306 19.5 100.754 20.0704 102.103 21.2111C103.452 22.3518 104.126 23.9815 104.126 26.1V34.8694C104.126 35.0934 104.046 35.2867 103.884 35.45C103.723 35.6128 103.532 35.6944 103.311 35.6944H98.0256C97.8043 35.6944 97.6132 35.6128 97.4518 35.45C97.2909 35.2867 97.2102 35.0934 97.2102 34.8694V34.0138C96.2641 35.3378 94.8848 36 93.0728 36C91.2608 36 89.8013 35.5417 88.6939 34.625C87.6067 33.6879 87.0631 32.5268 87.0631 31.1416ZM95.0056 31.4777C96.3146 31.4777 96.9686 30.6833 96.9686 29.0944L95.1868 29.4916C94.3011 29.6953 93.858 30.0722 93.858 30.6222C93.858 30.8666 93.959 31.0703 94.16 31.2333C94.3615 31.3963 94.6432 31.4777 95.0056 31.4777ZM113.927 26.6805V28.8194C113.927 29.512 114.018 30.011 114.199 30.3166C114.38 30.6222 114.662 30.7749 115.044 30.7749C115.427 30.7749 115.689 30.7138 115.83 30.5916C115.97 30.449 116.111 30.1944 116.252 29.8277C116.413 29.4407 116.705 29.2472 117.128 29.2472H123.017C123.239 29.2472 123.43 29.3287 123.591 29.4916C123.752 29.6546 123.833 29.8685 123.833 30.1333C123.833 30.3981 123.742 30.7546 123.561 31.2027C123.38 31.6509 123.067 32.1601 122.625 32.7305C122.182 33.3009 121.638 33.8305 120.994 34.3194C120.349 34.7878 119.504 35.185 118.457 35.5111C117.41 35.8367 116.252 36 114.984 36C112.467 36 110.424 35.3378 108.854 34.0138C107.303 32.6694 106.528 30.8157 106.528 28.4527V27.0472C106.528 24.6842 107.303 22.8407 108.854 21.5166C110.424 20.1722 112.467 19.5 114.984 19.5C116.474 19.5 117.823 19.7343 119.031 20.2028C120.239 20.6509 121.165 21.2111 121.809 21.8833C122.474 22.5352 122.977 23.1768 123.319 23.8083C123.661 24.4398 123.833 24.9287 123.833 25.275C123.833 25.6009 123.752 25.8453 123.591 26.0083C123.43 26.1713 123.239 26.2527 123.017 26.2527H117.128C116.746 26.2527 116.454 26.0491 116.252 25.6416C115.97 25.0305 115.598 24.725 115.135 24.725C114.33 24.725 113.927 25.3768 113.927 26.6805ZM142.185 29.5527H133.185V29.7055C133.185 30.9481 133.578 31.5694 134.363 31.5694C134.585 31.5694 134.856 31.4064 135.178 31.0805C135.501 30.7546 135.853 30.5916 136.235 30.5916H141.943C142.386 30.5916 142.607 30.8157 142.607 31.2638C142.607 32.262 141.863 33.3009 140.373 34.3805C138.903 35.46 136.9 36 134.363 36C131.846 36 129.783 35.3378 128.172 34.0138C126.582 32.6694 125.786 30.8259 125.786 28.4833V27.0166C125.786 24.7963 126.602 22.9935 128.232 21.6083C129.863 20.2028 131.997 19.5 134.635 19.5C137.292 19.5 139.346 20.2842 140.795 21.8527C142.265 23.4213 143 25.4074 143 27.8111V28.7277C143 28.9518 142.92 29.1453 142.758 29.3083C142.597 29.4713 142.406 29.5527 142.185 29.5527ZM135.601 25.6111C135.601 24.3888 135.199 23.7777 134.393 23.7777C133.588 23.7777 133.185 24.3888 133.185 25.6111V25.7333H135.601V25.6111Z" fill="#3377FF"/>
</g>
<defs>
<filter id="filter0_d" x="-1" y="0" width="149" height="53" filterUnits="userSpaceOnUse" color-interpolation-filters="sRGB">
<feFlood flood-opacity="0" result="BackgroundImageFix"/>
<feColorMatrix in="SourceAlpha" type="matrix" values="0 0 0 0 0 0 0 0 0 0 0 0 0 0 0 0 0 0 127 0"/>
<feOffset dy="2"/>
<feGaussianBlur stdDeviation="2.5"/>
<feColorMatrix type="matrix" values="0 0 0 0 0 0 0 0 0 0 0 0 0 0 0 0 0 0 0.05 0"/>
<feBlend mode="normal" in2="BackgroundImageFix" result="effect1_dropShadow"/>
<feBlend mode="normal" in="SourceGraphic" in2="effect1_dropShadow" result="shape"/>
</filter>
<filter id="filter1_d" x="1.34375" y="2.80078" width="50.9239" height="50.9754" filterUnits="userSpaceOnUse" color-interpolation-filters="sRGB">
<feFlood flood-opacity="0" result="BackgroundImageFix"/>
<feColorMatrix in="SourceAlpha" type="matrix" values="0 0 0 0 0 0 0 0 0 0 0 0 0 0 0 0 0 0 127 0"/>
<feOffset dy="4"/>
<feGaussianBlur stdDeviation="2"/>
<feColorMatrix type="matrix" values="0 0 0 0 0 0 0 0 0 0 0 0 0 0 0 0 0 0 0.05 0"/>
<feBlend mode="normal" in2="BackgroundImageFix" result="effect1_dropShadow"/>
<feBlend mode="normal" in="SourceGraphic" in2="effect1_dropShadow" result="shape"/>
</filter>
<filter id="filter2_d" x="12.4316" y="15.5469" width="27.0667" height="25.8457" filterUnits="userSpaceOnUse" color-interpolation-filters="sRGB">
<feFlood flood-opacity="0" result="BackgroundImageFix"/>
<feColorMatrix in="SourceAlpha" type="matrix" values="0 0 0 0 0 0 0 0 0 0 0 0 0 0 0 0 0 0 127 0"/>
<feOffset dy="4"/>
<feGaussianBlur stdDeviation="2"/>
<feColorMatrix type="matrix" values="0 0 0 0 0 0 0 0 0 0 0 0 0 0 0 0 0 0 0.05 0"/>
<feBlend mode="normal" in2="BackgroundImageFix" result="effect1_dropShadow"/>
<feBlend mode="normal" in="SourceGraphic" in2="effect1_dropShadow" result="shape"/>
</filter>
<filter id="filter3_d" x="52" y="14" width="95" height="30" filterUnits="userSpaceOnUse" color-interpolation-filters="sRGB">
<feFlood flood-opacity="0" result="BackgroundImageFix"/>
<feColorMatrix in="SourceAlpha" type="matrix" values="0 0 0 0 0 0 0 0 0 0 0 0 0 0 0 0 0 0 127 0"/>
<feOffset dy="4"/>
<feGaussianBlur stdDeviation="2"/>
<feColorMatrix type="matrix" values="0 0 0 0 0 0 0 0 0 0 0 0 0 0 0 0 0 0 0.05 0"/>
<feBlend mode="normal" in2="BackgroundImageFix" result="effect1_dropShadow"/>
<feBlend mode="normal" in="SourceGraphic" in2="effect1_dropShadow" result="shape"/>
</filter>
<clipPath id="clip0">
<rect width="139" height="43" fill="white" transform="translate(4 3)"/>
</clipPath>
</defs>
</svg>
