<svg width="30" height="26" viewBox="0 0 30 26" fill="none" xmlns="http://www.w3.org/2000/svg">
<path d="M11.1319 8.06679C11.2595 7.95051 11.3608 7.81222 11.4299 7.65991C11.4989 7.5076 11.5344 7.34429 11.5342 7.17936C11.5341 7.01444 11.4983 6.85117 11.429 6.69897C11.3597 6.54677 11.2582 6.40864 11.1303 6.29254C11.0025 6.17645 10.8508 6.08468 10.6841 6.02254C10.5173 5.96039 10.3388 5.92909 10.1588 5.93043C9.97884 5.93178 9.80092 5.96575 9.63531 6.03038C9.46971 6.09502 9.3197 6.18905 9.19395 6.30704C8.05734 7.35906 7.28666 8.69619 6.9793 10.1495C6.67194 11.6027 6.84171 13.1069 7.46717 14.4717C8.09261 15.8366 9.14565 17.0009 10.4932 17.8175C11.8407 18.6342 13.4222 19.0664 15.0378 19.0596C16.6533 19.0529 18.2305 18.6074 19.5698 17.7795C20.9091 16.9516 21.9505 15.7785 22.5622 14.4084C23.1741 13.0383 23.3288 11.5328 23.0068 10.0822C22.685 8.6316 21.901 7.30098 20.7539 6.25855C20.6267 6.143 20.4758 6.05155 20.3099 5.98943C20.1441 5.92731 19.9665 5.89574 19.7872 5.8965C19.6081 5.89726 19.4308 5.93035 19.2656 5.99389C19.1004 6.05741 18.9505 6.15014 18.8243 6.26677C18.6982 6.38338 18.5984 6.52163 18.5307 6.67359C18.4629 6.82556 18.4284 6.98828 18.4292 7.15245C18.43 7.31661 18.4662 7.47902 18.5354 7.63041C18.6049 7.7818 18.7061 7.91918 18.8333 8.03473C19.5982 8.72935 20.1213 9.61621 20.3361 10.5831C20.551 11.5501 20.448 12.5537 20.0404 13.4671C19.6328 14.3804 18.9387 15.1626 18.0459 15.7145C17.1533 16.2664 16.102 16.5634 15.025 16.568C13.948 16.5725 12.8938 16.2843 11.9956 15.7399C11.0973 15.1954 10.3955 14.4192 9.97874 13.5093C9.56199 12.5994 9.44907 11.5967 9.65426 10.628C9.85944 9.65928 10.3735 8.76808 11.1315 8.06706L11.1319 8.06679Z" fill="#27AE60" fill-opacity="0.7"/>
<path d="M20.7305 0.000164836C19.8344 0.00165039 18.9474 0.165984 18.121 0.483654C17.2946 0.801325 16.5452 1.26602 15.9162 1.85085C15.6613 2.08601 15.3151 2.21893 14.9534 2.22043C14.5917 2.22194 14.244 2.09191 13.9868 1.85886C12.7007 0.693962 10.9629 0.0440164 9.15442 0.0516042C7.346 0.0591921 5.61468 0.723693 4.34028 1.89934C2.25346 3.8307 0.838421 6.28558 0.274042 8.95366C-0.290337 11.6217 0.0212765 14.3833 1.1695 16.8891C2.31771 19.395 4.251 21.5327 6.72493 23.0319C9.19888 24.5312 12.1024 25.3248 15.0685 25.3124C18.0347 25.3 20.9301 24.4821 23.389 22.9622C25.848 21.4422 27.7598 19.2884 28.883 16.7732C30.0061 14.2578 30.2903 11.4937 29.6992 8.83049C29.1083 6.16724 27.6689 3.72431 25.5629 1.8105C24.9281 1.23099 24.1741 0.772593 23.3445 0.461847C22.5151 0.151102 21.6266 -0.00581771 20.7305 0.000164836ZM23.642 3.58628C25.3671 5.15245 26.5465 7.15211 27.0311 9.33245C27.5157 11.5128 27.284 13.7758 26.3649 15.8354C25.4458 17.895 23.8809 19.6586 21.8678 20.9033C19.8549 22.1479 17.4842 22.8177 15.0558 22.8279C12.6274 22.8381 10.2502 22.1883 8.22482 20.9605C6.19947 19.7328 4.61693 17.9823 3.67734 15.9305C2.73776 13.8788 2.48332 11.6177 2.9462 9.43343C3.40907 7.24912 4.56848 5.23964 6.27779 3.65909C7.04251 2.9537 8.08135 2.55501 9.16645 2.55045C10.2516 2.54589 11.2943 2.93584 12.0661 3.63477C12.8377 4.33376 13.8803 4.72375 14.9654 4.71923C16.0504 4.7147 17.0891 4.31599 17.8537 3.61059C18.6177 2.90417 19.6568 2.50474 20.7422 2.50018C21.8277 2.49562 22.8707 2.8863 23.6417 3.58628" fill="#27AE60" fill-opacity="0.7"/>
<path d="M14.9998 13.7905C16.2241 13.7905 17.2164 12.8812 17.2164 11.7595C17.2164 10.6378 16.2241 9.72852 14.9998 9.72852C13.7756 9.72852 12.7832 10.6378 12.7832 11.7595C12.7832 12.8812 13.7756 13.7905 14.9998 13.7905Z" fill="#27AE60" fill-opacity="0.7"/>
</svg>
