<svg width="104" height="87" viewBox="0 0 104 87" fill="none" xmlns="http://www.w3.org/2000/svg">
<path d="M38.2582 27.7231C38.6969 27.3234 39.0449 26.8481 39.2823 26.3246C39.5196 25.8012 39.6415 25.2398 39.641 24.673C39.6405 24.1061 39.5176 23.545 39.2793 23.0218C39.041 22.4987 38.6921 22.024 38.2527 21.6249C37.8133 21.2259 37.292 20.9105 36.7189 20.6969C36.1459 20.4833 35.5323 20.3757 34.9137 20.3803C34.2951 20.385 33.6836 20.5017 33.1143 20.7239C32.5452 20.9461 32.0296 21.2692 31.5974 21.6748C27.6908 25.2906 25.0419 29.8864 23.9855 34.8813C22.9291 39.8762 23.5126 45.046 25.6624 49.7371C27.812 54.4281 31.4313 58.4299 36.0628 61.2366C40.6943 64.0437 46.13 65.5293 51.6828 65.5058C57.2354 65.4827 62.6564 63.9516 67.2596 61.1061C71.8628 58.2605 75.4421 54.2285 77.5446 49.5194C79.6475 44.8105 80.1794 39.636 79.0727 34.6502C77.9666 29.6644 75.2721 25.091 71.3294 21.5081C70.8922 21.111 70.3736 20.7966 69.8032 20.5831C69.2334 20.3696 68.6231 20.2611 68.0069 20.2637C67.3912 20.2663 66.7819 20.3801 66.2141 20.5985C65.6462 20.8168 65.131 21.1355 64.6972 21.5363C64.2639 21.9372 63.9208 22.4123 63.6882 22.9346C63.455 23.4569 63.3367 24.0162 63.3391 24.5805C63.3421 25.1447 63.4663 25.7029 63.7044 26.2232C63.943 26.7436 64.291 27.2157 64.7283 27.6129C67.3572 30.0003 69.155 33.0485 69.8935 36.3719C70.6319 39.6954 70.278 43.1448 68.877 46.284C67.476 49.4232 65.0906 52.1115 62.022 54.0085C58.9538 55.9055 55.3405 56.9263 51.6389 56.9421C47.9373 56.9575 44.3138 55.967 41.2266 54.0957C38.1394 52.2244 35.7271 49.5564 34.2947 46.429C32.8623 43.3018 32.4742 39.8555 33.1795 36.526C33.8847 33.1965 35.6516 30.1334 38.2567 27.724L38.2582 27.7231Z" fill="#27AE60" fill-opacity="0.7"/>
<path d="M71.2514 0.000566549C68.1715 0.00567244 65.123 0.570492 62.2826 1.66234C59.4422 2.75418 56.8666 4.35137 54.7045 6.36143C53.8285 7.16969 52.6385 7.62655 51.3953 7.6317C50.152 7.6369 48.9572 7.18997 48.0733 6.38898C43.6528 2.38517 37.6797 0.151286 31.4641 0.177365C25.2485 0.203445 19.2979 2.48736 14.9177 6.52809C7.74522 13.1662 2.88169 21.6038 0.941893 30.7741C-0.997899 39.9444 0.0731281 49.4359 4.0196 58.0483C7.96606 66.6612 14.6108 74.0086 23.1138 79.1617C31.6169 84.3148 41.5965 87.0424 51.7911 86.9995C61.9859 86.957 71.9376 84.1459 80.3888 78.9218C88.8405 73.6978 95.4116 66.2949 99.2719 57.65C103.132 49.0045 104.109 39.5044 102.077 30.3507C100.046 21.197 95.0991 12.8006 87.8605 6.22276C85.6787 4.23096 83.0873 2.65543 80.236 1.58739C77.3853 0.519345 74.3314 -0.0199957 71.2514 0.000566549ZM81.2584 12.3262C87.1877 17.7091 91.2412 24.5821 92.9069 32.076C94.5726 39.5698 93.776 47.3478 90.6171 54.4268C87.4583 61.5059 82.0797 67.5673 75.1606 71.8455C68.242 76.1233 60.0939 78.4254 51.7472 78.4602C43.4007 78.4955 35.2302 76.2619 28.269 72.042C21.3078 67.8225 15.8685 61.8058 12.6392 54.7538C9.40977 47.7019 8.53527 39.9306 10.1262 32.423C11.7171 24.9155 15.702 18.0088 21.577 12.5764C24.2054 10.152 27.7759 8.78166 31.5054 8.76598C35.235 8.75031 38.8191 10.0906 41.4716 12.4929C44.1235 14.8953 47.7072 16.2357 51.4367 16.2202C55.1659 16.2046 58.7358 14.8342 61.3638 12.4097C63.9897 9.98175 67.5612 8.60889 71.2919 8.59322C75.0225 8.57755 78.6073 9.92032 81.2574 12.3262" fill="#27AE60" fill-opacity="0.7"/>
<path d="M51.5561 47.3986C55.764 47.3986 59.1747 44.2733 59.1747 40.4181C59.1747 36.5628 55.764 33.4375 51.5561 33.4375C47.3484 33.4375 43.9375 36.5628 43.9375 40.4181C43.9375 44.2733 47.3484 47.3986 51.5561 47.3986Z" fill="#27AE60" fill-opacity="0.7"/>
</svg>
