<svg width="375" height="401" viewBox="0 0 375 401" fill="none" xmlns="http://www.w3.org/2000/svg">
<g filter="url(#filter0_dd)">
<path d="M31.9844 9.94238L191.911 12.9082L274.08 15.4658L259.19 27.6173L285.109 15.4658L336.396 9.94238L330.33 109.916V208.653L317.646 193.32L330.33 216.518L336.396 282.799H184.19L38.0506 261.05V94.963L46.3226 107.154L35.2932 77.328L31.9844 9.94238Z" fill="white"/>
<path d="M298.652 261.135L332.606 257.2L338.504 280.393L341.828 299.341L336.654 301.791L334.696 298.068L329.411 298.34L323.621 300.275L317.581 297.308L312.882 297.549L308.267 299.424L302.898 298.061L298.652 261.135Z" fill="white"/>
<path d="M262.5 266.688L296.637 264.759L304.289 341.777L290.098 344.792L271.316 344.747L268.009 305.655L262.5 266.688Z" fill="white"/>
<path d="M277.941 288.354L279.596 307.702L279.044 325.914" stroke="black" stroke-opacity="0.15"/>
<path d="M284.559 288.351L285.661 304.388V318.177" stroke="black" stroke-opacity="0.15"/>
<path d="M292.277 288.335L292.83 305.493L294.483 322.58" stroke="black" stroke-opacity="0.15"/>
<path d="M225 265.677H263.603L266.912 305.998L268.015 344.109L250.919 345.766L234.375 344.109L225 265.677Z" fill="white"/>
<path d="M241.543 302.716L243.197 322.063L242.646 340.275" stroke="black" stroke-opacity="0.15"/>
<path d="M248.16 302.711L249.263 318.749V332.537" stroke="black" stroke-opacity="0.15"/>
<path d="M255.879 302.695L256.431 319.853L258.085 336.941" stroke="black" stroke-opacity="0.15"/>
<path d="M191.879 265.689L227.167 266.349L225.705 315.4V344.768L208.065 345.779L190.418 344.108V307.115L191.879 265.689Z" fill="white"/>
<path d="M153.701 266.781L190.022 269.134L186.501 306.544L182.312 302.952L177.359 302.63L174.964 296.94L169.548 303.785L161.558 307.695L159.092 303.108L152.824 306.023L153.701 266.781Z" fill="white"/>
<path d="M118.685 249.106L153.903 251.421L150.599 321.463L147.842 343.557L129.644 344.662L112.547 342.803L115.857 299.37L118.685 249.106Z" fill="white"/>
<path d="M122.426 300.506L124.08 319.853L123.529 338.065" stroke="black" stroke-opacity="0.15"/>
<path d="M129.043 300.502L130.146 316.54V330.328" stroke="black" stroke-opacity="0.15"/>
<path d="M136.762 300.486L137.314 317.644L138.968 334.731" stroke="black" stroke-opacity="0.15"/>
<path d="M38 243L87.6324 266.198L80.4632 276.693L74.3971 272.826L69.4338 274.483L61.1618 273.931L56.1985 268.96L50.1324 273.931L45.1691 270.617L38 275.588V243Z" fill="white"/>
<path d="M85.9631 249L119.86 253.484L113.174 290.5L109.457 288.542L106.997 291.672L104.379 289.801L101.124 288.988L98.6633 292.118L93.3838 288.929L85.3387 292.722L83 286.442L85.9631 249Z" fill="white"/>
</g>
<path d="M152.862 79.7787H157.963V88.7542H152.862V99.4213H141.246V88.7542H121.842L121.152 81.6427L141.246 49.2618V49.1582H152.862V79.7787ZM132.216 79.7787H141.246V64.3131L140.522 65.4867L132.216 79.7787ZM204.969 78.881C204.969 85.6703 203.441 90.9061 200.384 94.5883C197.351 98.2705 193.066 100.112 187.528 100.112C181.945 100.112 177.625 98.2591 174.569 94.5538C171.513 90.8485 169.985 85.6242 169.985 78.881V69.6985C169.985 62.9092 171.502 57.6734 174.535 53.9912C177.591 50.3089 181.899 48.4678 187.46 48.4678C193.02 48.4678 197.328 50.3204 200.384 54.0257C203.441 57.731 204.969 62.9667 204.969 69.7329V78.881ZM193.353 68.214C193.353 64.6008 192.882 61.9081 191.94 60.136C190.998 58.3409 189.505 57.4433 187.46 57.4433C185.46 57.4433 184.001 58.2718 183.082 59.9289C182.186 61.5859 181.704 64.0944 181.634 67.4545V80.2965C181.634 84.0477 182.105 86.798 183.048 88.547C183.99 90.2732 185.484 91.1362 187.528 91.1362C189.505 91.1362 190.964 90.2962 191.906 88.6162C192.848 86.9131 193.33 84.2549 193.353 80.6417V68.214ZM248.735 79.7787H253.836V88.7542H248.735V99.4213H237.12V88.7542H217.715L217.025 81.6427L237.12 49.2618V49.1582H248.735V79.7787ZM228.089 79.7787H237.12V64.3131L236.395 65.4867L228.089 79.7787Z" fill="#333333"/>
<path d="M214.522 134.771C219.091 134.771 222.794 131.062 222.794 126.486C222.794 121.911 219.091 118.201 214.522 118.201C209.954 118.201 206.25 121.911 206.25 126.486C206.25 131.062 209.954 134.771 214.522 134.771Z" stroke="#333333" stroke-width="2"/>
<path d="M163.788 134.771C168.356 134.771 172.06 131.062 172.06 126.486C172.06 121.911 168.356 118.201 163.788 118.201C159.219 118.201 155.516 121.911 155.516 126.486C155.516 131.062 159.219 134.771 163.788 134.771Z" stroke="#333333" stroke-width="2"/>
<path d="M165.993 127.038C168.125 127.038 169.853 125.555 169.853 123.724C169.853 121.894 168.125 120.41 165.993 120.41C163.861 120.41 162.133 121.894 162.133 123.724C162.133 125.555 163.861 127.038 165.993 127.038Z" fill="#0C4712"/>
<path d="M212.317 127.038C214.449 127.038 216.178 125.555 216.178 123.724C216.178 121.894 214.449 120.41 212.317 120.41C210.185 120.41 208.457 121.894 208.457 123.724C208.457 125.555 210.185 127.038 212.317 127.038Z" fill="#0C4712"/>
<path d="M166.544 123.725C167.153 123.725 167.647 123.23 167.647 122.62C167.647 122.01 167.153 121.516 166.544 121.516C165.935 121.516 165.441 122.01 165.441 122.62C165.441 123.23 165.935 123.725 166.544 123.725Z" fill="white"/>
<path d="M210.662 123.725C211.271 123.725 211.764 123.23 211.764 122.62C211.764 122.01 211.271 121.516 210.662 121.516C210.052 121.516 209.559 122.01 209.559 122.62C209.559 123.23 210.052 123.725 210.662 123.725Z" fill="white"/>
<path d="M151.102 161.134C151.102 160.279 151.75 159.563 152.6 159.48L190.274 155.812C190.629 155.778 190.986 155.778 191.341 155.812L229.014 159.48C229.865 159.563 230.513 160.279 230.513 161.134C230.513 162.106 229.684 162.871 228.717 162.79L191.265 159.665C190.961 159.64 190.654 159.64 190.35 159.665L152.898 162.79C151.931 162.871 151.102 162.106 151.102 161.134Z" fill="#333333"/>
<path d="M179.781 159.074H184.193V166.255L183.002 167L182.502 166.5L181.002 167.5L179.781 166.255V159.074Z" fill="#333333"/>
<path d="M195.219 159.074H199.63V165.15L197.976 165.702L196.873 165.15L195.219 165.702V159.074Z" fill="#333333"/>
<path d="M183.98 149.132L189.706 137.663L195.431 149.132H183.98Z" stroke="#333333"/>
<path d="M189.705 147.475C190.619 147.475 191.36 146.733 191.36 145.818C191.36 144.903 190.619 144.161 189.705 144.161C188.791 144.161 188.051 144.903 188.051 145.818C188.051 146.733 188.791 147.475 189.705 147.475Z" stroke="#333333"/>
<path d="M112.941 201.803C112.725 203.788 112.014 205.307 110.808 206.36C109.61 207.413 108.012 207.938 106.013 207.938C104.617 207.938 103.38 207.589 102.303 206.89C101.235 206.191 100.408 205.203 99.8215 203.926C99.2356 202.64 98.9383 201.172 98.9297 199.524V197.077C98.9297 195.404 99.2227 193.919 99.8086 192.624C100.395 191.33 101.235 190.333 102.329 189.634C103.432 188.926 104.699 188.572 106.129 188.572C108.145 188.572 109.735 189.12 110.898 190.216C112.071 191.304 112.751 192.81 112.941 194.734H111.338C110.941 191.533 109.205 189.932 106.129 189.932C104.423 189.932 103.061 190.571 102.045 191.848C101.037 193.125 100.532 194.89 100.532 197.142V199.447C100.532 201.622 101.024 203.356 102.006 204.651C102.997 205.946 104.332 206.593 106.013 206.593C107.676 206.593 108.929 206.195 109.774 205.402C110.618 204.599 111.14 203.399 111.338 201.803H112.941ZM129.133 194.994H124.041V207.68H122.489V194.994H117.591V193.673H129.133V194.994ZM145.571 200.819C145.571 203.003 145.088 204.737 144.123 206.023C143.158 207.3 141.866 207.938 140.246 207.938C138.333 207.938 136.868 207.266 135.851 205.919V213.065H134.314V193.673H135.749L135.826 195.653C136.834 194.161 138.294 193.414 140.208 193.414C141.879 193.414 143.189 194.048 144.137 195.317C145.093 196.586 145.571 198.346 145.571 200.599V200.819ZM144.021 200.547C144.021 198.761 143.655 197.349 142.921 196.314C142.189 195.278 141.168 194.761 139.858 194.761C138.911 194.761 138.096 194.989 137.415 195.447C136.735 195.904 136.213 196.568 135.851 197.44V204.158C136.222 204.961 136.752 205.574 137.442 205.998C138.131 206.42 138.945 206.632 139.885 206.632C141.185 206.632 142.198 206.114 142.921 205.078C143.655 204.033 144.021 202.523 144.021 200.547ZM160.484 207.68C160.329 207.24 160.23 206.589 160.186 205.725C159.644 206.433 158.95 206.981 158.106 207.37C157.27 207.748 156.382 207.938 155.444 207.938C154.099 207.938 153.01 207.564 152.174 206.813C151.346 206.062 150.933 205.113 150.933 203.965C150.933 202.601 151.496 201.522 152.626 200.728C153.763 199.934 155.345 199.537 157.37 199.537H160.174V197.946C160.174 196.944 159.863 196.158 159.243 195.589C158.631 195.01 157.736 194.722 156.555 194.722C155.478 194.722 154.586 194.998 153.88 195.551C153.173 196.103 152.82 196.767 152.82 197.543L151.268 197.53C151.268 196.418 151.785 195.456 152.82 194.644C153.853 193.824 155.125 193.414 156.633 193.414C158.192 193.414 159.42 193.806 160.317 194.592C161.221 195.368 161.687 196.456 161.712 197.854V204.482C161.712 205.837 161.854 206.851 162.139 207.524V207.68H160.484ZM155.625 206.566C156.658 206.566 157.58 206.317 158.39 205.815C159.209 205.315 159.804 204.647 160.174 203.809V200.728H157.408C155.865 200.746 154.66 201.03 153.789 201.582C152.919 202.127 152.484 202.877 152.484 203.836C152.484 204.62 152.773 205.272 153.349 205.79C153.935 206.308 154.694 206.566 155.625 206.566ZM179.235 207.68H177.685V201.26H170.149V207.68H168.599V193.673H170.149V199.952H177.685V193.673H179.235V207.68ZM195.221 193.673H196.772V207.68H195.221V196.171L187.673 207.68H186.135V193.673H187.673V205.194L195.221 193.673ZM203.672 193.673H205.223V206.372H212.758V193.673H214.309V206.372H215.732L215.615 211.836H214.193V207.68H203.672V193.673ZM230.114 207.68C229.96 207.24 229.86 206.589 229.817 205.725C229.274 206.433 228.581 206.981 227.736 207.37C226.9 207.748 226.012 207.938 225.074 207.938C223.729 207.938 222.639 207.564 221.803 206.813C220.976 206.062 220.563 205.113 220.563 203.965C220.563 202.601 221.127 201.522 222.256 200.728C223.393 199.934 224.974 199.537 226.999 199.537H229.804V197.946C229.804 196.944 229.494 196.158 228.873 195.589C228.261 195.01 227.366 194.722 226.185 194.722C225.108 194.722 224.217 194.998 223.51 195.551C222.803 196.103 222.45 196.767 222.45 197.543L220.899 197.53C220.899 196.418 221.415 195.456 222.45 194.644C223.483 193.824 224.755 193.414 226.263 193.414C227.822 193.414 229.05 193.806 229.946 194.592C230.851 195.368 231.316 196.456 231.342 197.854V204.482C231.342 205.837 231.484 206.851 231.768 207.524V207.68H230.114ZM225.255 206.566C226.288 206.566 227.21 206.317 228.021 205.815C228.839 205.315 229.434 204.647 229.804 203.809V200.728H227.038C225.496 200.746 224.289 201.03 223.419 201.582C222.549 202.127 222.113 202.877 222.113 203.836C222.113 204.62 222.402 205.272 222.979 205.79C223.566 206.308 224.324 206.566 225.255 206.566ZM257.95 207.68H256.398V201.26H248.863V207.68H247.312V193.673H248.863V199.952H256.398V193.673H257.95V207.68ZM270.162 207.938C268.972 207.938 267.895 207.646 266.93 207.059C265.974 206.471 265.228 205.656 264.695 204.612C264.16 203.56 263.893 202.381 263.893 201.077V200.522C263.893 199.175 264.151 197.962 264.668 196.884C265.194 195.805 265.922 194.958 266.853 194.346C267.783 193.724 268.791 193.414 269.877 193.414C271.575 193.414 272.919 193.996 273.91 195.162C274.909 196.318 275.409 197.901 275.409 199.913V200.78H265.43V201.077C265.43 202.666 265.884 203.99 266.788 205.052C267.701 206.105 268.847 206.632 270.226 206.632C271.053 206.632 271.781 206.48 272.411 206.179C273.048 205.876 273.625 205.393 274.142 204.728L275.112 205.466C273.975 207.114 272.324 207.938 270.162 207.938ZM269.877 194.734C268.714 194.734 267.731 195.162 266.93 196.016C266.137 196.871 265.655 198.018 265.482 199.46H273.871V199.291C273.828 197.946 273.444 196.849 272.721 196.003C271.997 195.157 271.049 194.734 269.877 194.734ZM140.918 238.611H139.367V232.191H131.832V238.611H130.281V224.604H131.832V230.883H139.367V224.604H140.918V238.611ZM156.542 238.611C156.387 238.171 156.288 237.52 156.245 236.656C155.702 237.364 155.008 237.912 154.163 238.301C153.328 238.68 152.441 238.87 151.501 238.87C150.157 238.87 149.067 238.495 148.232 237.744C147.405 236.993 146.991 236.044 146.991 234.896C146.991 233.532 147.555 232.454 148.684 231.659C149.821 230.865 151.403 230.468 153.427 230.468H156.231V228.877C156.231 227.875 155.921 227.089 155.302 226.52C154.689 225.941 153.794 225.653 152.613 225.653C151.536 225.653 150.644 225.929 149.937 226.482C149.231 227.034 148.877 227.698 148.877 228.475L147.326 228.461C147.326 227.349 147.843 226.387 148.877 225.575C149.911 224.755 151.182 224.345 152.691 224.345C154.25 224.345 155.478 224.737 156.374 225.523C157.279 226.299 157.745 227.388 157.77 228.785V235.413C157.77 236.768 157.912 237.783 158.197 238.455V238.611H156.542ZM151.682 237.498C152.716 237.498 153.638 237.248 154.448 236.746C155.266 236.246 155.861 235.578 156.231 234.74V231.659H153.466C151.923 231.677 150.717 231.961 149.846 232.513C148.976 233.058 148.542 233.808 148.542 234.767C148.542 235.551 148.831 236.203 149.407 236.721C149.993 237.239 150.752 237.498 151.682 237.498ZM173.743 224.604H175.293V238.611H173.743V227.102L166.194 238.611H164.657V224.604H166.194V236.126L173.743 224.604ZM173.666 219.555C173.666 220.547 173.325 221.35 172.644 221.964C171.973 222.576 171.067 222.883 169.93 222.883C168.809 222.883 167.905 222.58 167.216 221.976C166.535 221.364 166.194 220.556 166.194 219.555H167.513C167.513 220.271 167.724 220.82 168.146 221.199C168.577 221.579 169.171 221.769 169.93 221.769C170.688 221.769 171.279 221.57 171.7 221.174C172.131 220.776 172.346 220.237 172.346 219.555H173.666ZM181.767 237.303L182.452 236.411C183.537 234.935 184.162 232.777 184.325 229.937L184.571 224.604H192.83V237.303H194.278V242.728H192.74V238.611H182.232V242.728H180.745L180.759 237.303H181.767ZM183.55 237.303H191.28V226.054H186.045L185.877 229.692C185.722 233.031 184.946 235.569 183.55 237.303ZM205.327 238.87C204.138 238.87 203.06 238.577 202.095 237.99C201.139 237.403 200.393 236.587 199.859 235.543C199.325 234.491 199.057 233.312 199.057 232.008V231.453C199.057 230.106 199.317 228.893 199.833 227.815C200.359 226.736 201.087 225.89 202.018 225.278C202.949 224.656 203.957 224.345 205.042 224.345C206.739 224.345 208.084 224.927 209.074 226.093C210.075 227.249 210.574 228.832 210.574 230.844V231.711H200.596V232.008C200.596 233.597 201.048 234.921 201.953 235.983C202.866 237.036 204.013 237.563 205.392 237.563C206.219 237.563 206.947 237.411 207.575 237.11C208.213 236.807 208.791 236.324 209.307 235.659L210.277 236.397C209.139 238.045 207.489 238.87 205.327 238.87ZM205.042 225.665C203.878 225.665 202.897 226.093 202.095 226.947C201.302 227.802 200.82 228.95 200.648 230.391H209.036V230.222C208.993 228.877 208.609 227.78 207.885 226.935C207.162 226.088 206.214 225.665 205.042 225.665ZM226.973 238.611H225.422V232.191H217.887V238.611H216.336V224.604H217.887V230.883H225.422V224.604H226.973V238.611ZM242.597 238.611C242.442 238.171 242.344 237.52 242.3 236.656C241.757 237.364 241.063 237.912 240.219 238.301C239.383 238.68 238.495 238.87 237.557 238.87C236.212 238.87 235.123 238.495 234.287 237.744C233.459 236.993 233.046 236.044 233.046 234.896C233.046 233.532 233.61 232.454 234.739 231.659C235.876 230.865 237.457 230.468 239.482 230.468H242.287V228.877C242.287 227.875 241.977 227.089 241.356 226.52C240.744 225.941 239.849 225.653 238.669 225.653C237.591 225.653 236.699 225.929 235.993 226.482C235.286 227.034 234.933 227.698 234.933 228.475L233.382 228.461C233.382 227.349 233.898 226.387 234.933 225.575C235.966 224.755 237.238 224.345 238.746 224.345C240.305 224.345 241.533 224.737 242.43 225.523C243.334 226.299 243.799 227.388 243.825 228.785V235.413C243.825 236.768 243.967 237.783 244.252 238.455V238.611H242.597ZM237.738 237.498C238.771 237.498 239.693 237.248 240.504 236.746C241.322 236.246 241.917 235.578 242.287 234.74V231.659H239.521C237.979 231.677 236.773 231.961 235.902 232.513C235.032 233.058 234.596 233.808 234.596 234.767C234.596 235.551 234.885 236.203 235.462 236.721C236.049 237.239 236.807 237.498 237.738 237.498ZM252.262 233.368H250.828L250.75 219.763H252.353L252.262 233.368ZM250.569 237.705C250.569 237.411 250.664 237.165 250.854 236.967C251.043 236.76 251.302 236.656 251.629 236.656C251.957 236.656 252.215 236.76 252.405 236.967C252.603 237.165 252.702 237.411 252.702 237.705C252.702 237.99 252.603 238.231 252.405 238.43C252.215 238.62 251.957 238.715 251.629 238.715C251.302 238.715 251.043 238.62 250.854 238.43C250.664 238.231 250.569 237.99 250.569 237.705Z" fill="#333333"/>
<path d="M200.734 297.191L202.389 316.539L201.837 334.751" stroke="black" stroke-opacity="0.15"/>
<path d="M207.352 297.188L208.454 313.225V327.014" stroke="black" stroke-opacity="0.15"/>
<path d="M215.074 297.172L215.627 314.33L217.28 331.417" stroke="black" stroke-opacity="0.15"/>
<defs>
<filter id="filter0_dd" x="2.98438" y="0.942383" width="367.844" height="393.837" filterUnits="userSpaceOnUse" color-interpolation-filters="sRGB">
<feFlood flood-opacity="0" result="BackgroundImageFix"/>
<feColorMatrix in="SourceAlpha" type="matrix" values="0 0 0 0 0 0 0 0 0 0 0 0 0 0 0 0 0 0 127 0"/>
<feOffset dy="20"/>
<feGaussianBlur stdDeviation="14.5"/>
<feColorMatrix type="matrix" values="0 0 0 0 0 0 0 0 0 0 0 0 0 0 0 0 0 0 0.25 0"/>
<feBlend mode="normal" in2="BackgroundImageFix" result="effect1_dropShadow"/>
<feColorMatrix in="SourceAlpha" type="matrix" values="0 0 0 0 0 0 0 0 0 0 0 0 0 0 0 0 0 0 127 0"/>
<feOffset dy="4"/>
<feGaussianBlur stdDeviation="2"/>
<feColorMatrix type="matrix" values="0 0 0 0 0 0 0 0 0 0 0 0 0 0 0 0 0 0 0.25 0"/>
<feBlend mode="normal" in2="effect1_dropShadow" result="effect2_dropShadow"/>
<feBlend mode="normal" in="SourceGraphic" in2="effect2_dropShadow" result="shape"/>
</filter>
</defs>
</svg>
